%TF.GenerationSoftware,KiCad,Pcbnew,9.0.6*%
%TF.CreationDate,2025-11-27T18:05:16-05:00*%
%TF.ProjectId,Main-board-ArduinoNano,4d61696e-2d62-46f6-9172-642d41726475,rev?*%
%TF.SameCoordinates,Original*%
%TF.FileFunction,Soldermask,Top*%
%TF.FilePolarity,Negative*%
%FSLAX46Y46*%
G04 Gerber Fmt 4.6, Leading zero omitted, Abs format (unit mm)*
G04 Created by KiCad (PCBNEW 9.0.6) date 2025-11-27 18:05:16*
%MOMM*%
%LPD*%
G01*
G04 APERTURE LIST*
G04 Aperture macros list*
%AMRoundRect*
0 Rectangle with rounded corners*
0 $1 Rounding radius*
0 $2 $3 $4 $5 $6 $7 $8 $9 X,Y pos of 4 corners*
0 Add a 4 corners polygon primitive as box body*
4,1,4,$2,$3,$4,$5,$6,$7,$8,$9,$2,$3,0*
0 Add four circle primitives for the rounded corners*
1,1,$1+$1,$2,$3*
1,1,$1+$1,$4,$5*
1,1,$1+$1,$6,$7*
1,1,$1+$1,$8,$9*
0 Add four rect primitives between the rounded corners*
20,1,$1+$1,$2,$3,$4,$5,0*
20,1,$1+$1,$4,$5,$6,$7,0*
20,1,$1+$1,$6,$7,$8,$9,0*
20,1,$1+$1,$8,$9,$2,$3,0*%
G04 Aperture macros list end*
%ADD10R,1.700000X1.700000*%
%ADD11C,1.700000*%
%ADD12R,1.600000X1.600000*%
%ADD13C,1.600000*%
%ADD14C,2.000000*%
%ADD15C,5.700000*%
%ADD16C,4.000000*%
%ADD17C,2.200000*%
%ADD18R,2.600000X2.600000*%
%ADD19C,2.600000*%
%ADD20C,3.200000*%
%ADD21R,3.500000X3.500000*%
%ADD22RoundRect,0.750000X0.750000X1.000000X-0.750000X1.000000X-0.750000X-1.000000X0.750000X-1.000000X0*%
%ADD23RoundRect,0.875000X0.875000X0.875000X-0.875000X0.875000X-0.875000X-0.875000X0.875000X-0.875000X0*%
%ADD24R,2.200000X2.200000*%
%ADD25O,2.200000X2.200000*%
%ADD26O,1.600000X1.600000*%
%ADD27O,1.700000X1.700000*%
%ADD28R,1.800000X1.070000*%
%ADD29O,1.800000X1.070000*%
G04 APERTURE END LIST*
D10*
%TO.C,J5*%
X135540000Y-20000000D03*
%TD*%
%TO.C,J4*%
X125540000Y-20000000D03*
D11*
X123000000Y-20000000D03*
X120460000Y-20000000D03*
X117920000Y-20000000D03*
X115380000Y-20000000D03*
X112840000Y-20000000D03*
X110300000Y-20000000D03*
%TD*%
D12*
%TO.C,C1*%
X88750000Y-17200000D03*
D13*
X88750000Y-13700000D03*
%TD*%
D14*
%TO.C,F1*%
X123300000Y-3300000D03*
X128300000Y-3300000D03*
%TD*%
D15*
%TO.C,H1*%
X135000000Y-45000000D03*
%TD*%
D12*
%TO.C,C3*%
X5000000Y-16347349D03*
D13*
X5000000Y-19847349D03*
%TD*%
D11*
%TO.C,SW4*%
X72070000Y-38000000D03*
D16*
X77150000Y-38000000D03*
D11*
X82230000Y-38000000D03*
D17*
X79690000Y-32920000D03*
X73340000Y-35460000D03*
%TD*%
D18*
%TO.C,J8*%
X13000000Y-5305000D03*
D19*
X18000000Y-5305000D03*
X23000000Y-5305000D03*
X28000000Y-5305000D03*
%TD*%
D20*
%TO.C,H4*%
X5000000Y-5000000D03*
%TD*%
%TO.C,H2*%
X135000000Y-5000000D03*
%TD*%
D21*
%TO.C,J1*%
X126250000Y-13257500D03*
D22*
X132250000Y-13257500D03*
D23*
X129250000Y-8557500D03*
%TD*%
D11*
%TO.C,SW1*%
X14920000Y-38000000D03*
D16*
X20000000Y-38000000D03*
D11*
X25080000Y-38000000D03*
D17*
X22540000Y-32920000D03*
X16190000Y-35460000D03*
%TD*%
D24*
%TO.C,D1*%
X106180000Y-15300000D03*
D25*
X113800000Y-15300000D03*
%TD*%
D12*
%TO.C,A2*%
X99980000Y-39240000D03*
D26*
X102520000Y-39240000D03*
X105060000Y-39240000D03*
X107600000Y-39240000D03*
X110140000Y-39240000D03*
X112680000Y-39240000D03*
X115220000Y-39240000D03*
X117760000Y-39240000D03*
X120300000Y-39240000D03*
X122840000Y-39240000D03*
X125380000Y-39240000D03*
X127920000Y-39240000D03*
X130460000Y-39240000D03*
X133000000Y-39240000D03*
X135540000Y-39240000D03*
X135540000Y-24000000D03*
X133000000Y-24000000D03*
X130460000Y-24000000D03*
X127920000Y-24000000D03*
X125380000Y-24000000D03*
X122840000Y-24000000D03*
X120300000Y-24000000D03*
X117760000Y-24000000D03*
X115220000Y-24000000D03*
X112680000Y-24000000D03*
X110140000Y-24000000D03*
X107600000Y-24000000D03*
X105060000Y-24000000D03*
X102520000Y-24000000D03*
X99980000Y-24000000D03*
%TD*%
D10*
%TO.C,U2*%
X11110000Y-26850000D03*
D11*
X13650000Y-26850000D03*
X16190000Y-26850000D03*
X18730000Y-26850000D03*
X21270000Y-26850000D03*
X23810000Y-26850000D03*
X26350000Y-26850000D03*
X28890000Y-26850000D03*
X28890000Y-14150000D03*
X26350000Y-14150000D03*
X23810000Y-14150000D03*
X21270000Y-14150000D03*
X18730000Y-14150000D03*
X16190000Y-14150000D03*
X13650000Y-14150000D03*
X11110000Y-14150000D03*
X11110000Y-24310000D03*
X11110000Y-21770000D03*
%TD*%
D20*
%TO.C,H3*%
X5000000Y-45000000D03*
%TD*%
D24*
%TO.C,D3*%
X121550000Y-16620000D03*
D25*
X121550000Y-9000000D03*
%TD*%
D10*
%TO.C,J2*%
X103920000Y-9020000D03*
D27*
X103920000Y-6480000D03*
X106460000Y-9020000D03*
X106460000Y-6480000D03*
X109000000Y-9020000D03*
X109000000Y-6480000D03*
X111540000Y-9020000D03*
X111540000Y-6480000D03*
X114080000Y-9020000D03*
X114080000Y-6480000D03*
%TD*%
D11*
%TO.C,SW3*%
X53020000Y-38000000D03*
D16*
X58100000Y-38000000D03*
D11*
X63180000Y-38000000D03*
D17*
X60640000Y-32920000D03*
X54290000Y-35460000D03*
%TD*%
D24*
%TO.C,D5*%
X96810000Y-4000000D03*
D25*
X89190000Y-4000000D03*
%TD*%
D28*
%TO.C,LED1*%
X75950000Y-14680000D03*
D29*
X75950000Y-15950000D03*
X75950000Y-17220000D03*
X75950000Y-18490000D03*
%TD*%
D11*
%TO.C,SW2*%
X33970000Y-38000000D03*
D16*
X39050000Y-38000000D03*
D11*
X44130000Y-38000000D03*
D17*
X41590000Y-32920000D03*
X35240000Y-35460000D03*
%TD*%
D24*
%TO.C,D4*%
X96810000Y-8000000D03*
D25*
X89190000Y-8000000D03*
%TD*%
M02*
