%TF.GenerationSoftware,KiCad,Pcbnew,9.0.6*%
%TF.CreationDate,2025-12-06T00:54:10-05:00*%
%TF.ProjectId,Main-board-ArduinoNano,4d61696e-2d62-46f6-9172-642d41726475,rev?*%
%TF.SameCoordinates,Original*%
%TF.FileFunction,AssemblyDrawing,Top*%
%FSLAX46Y46*%
G04 Gerber Fmt 4.6, Leading zero omitted, Abs format (unit mm)*
G04 Created by KiCad (PCBNEW 9.0.6) date 2025-12-06 00:54:10*
%MOMM*%
%LPD*%
G01*
G04 APERTURE LIST*
%ADD10C,0.150000*%
%ADD11C,0.100000*%
G04 APERTURE END LIST*
D10*
X94454819Y-18759524D02*
X94454819Y-19330952D01*
X94454819Y-19045238D02*
X93454819Y-19045238D01*
X93454819Y-19045238D02*
X93597676Y-19140476D01*
X93597676Y-19140476D02*
X93692914Y-19235714D01*
X93692914Y-19235714D02*
X93740533Y-19330952D01*
X93454819Y-18140476D02*
X93454819Y-18045238D01*
X93454819Y-18045238D02*
X93502438Y-17950000D01*
X93502438Y-17950000D02*
X93550057Y-17902381D01*
X93550057Y-17902381D02*
X93645295Y-17854762D01*
X93645295Y-17854762D02*
X93835771Y-17807143D01*
X93835771Y-17807143D02*
X94073866Y-17807143D01*
X94073866Y-17807143D02*
X94264342Y-17854762D01*
X94264342Y-17854762D02*
X94359580Y-17902381D01*
X94359580Y-17902381D02*
X94407200Y-17950000D01*
X94407200Y-17950000D02*
X94454819Y-18045238D01*
X94454819Y-18045238D02*
X94454819Y-18140476D01*
X94454819Y-18140476D02*
X94407200Y-18235714D01*
X94407200Y-18235714D02*
X94359580Y-18283333D01*
X94359580Y-18283333D02*
X94264342Y-18330952D01*
X94264342Y-18330952D02*
X94073866Y-18378571D01*
X94073866Y-18378571D02*
X93835771Y-18378571D01*
X93835771Y-18378571D02*
X93645295Y-18330952D01*
X93645295Y-18330952D02*
X93550057Y-18283333D01*
X93550057Y-18283333D02*
X93502438Y-18235714D01*
X93502438Y-18235714D02*
X93454819Y-18140476D01*
X93454819Y-17188095D02*
X93454819Y-17092857D01*
X93454819Y-17092857D02*
X93502438Y-16997619D01*
X93502438Y-16997619D02*
X93550057Y-16950000D01*
X93550057Y-16950000D02*
X93645295Y-16902381D01*
X93645295Y-16902381D02*
X93835771Y-16854762D01*
X93835771Y-16854762D02*
X94073866Y-16854762D01*
X94073866Y-16854762D02*
X94264342Y-16902381D01*
X94264342Y-16902381D02*
X94359580Y-16950000D01*
X94359580Y-16950000D02*
X94407200Y-16997619D01*
X94407200Y-16997619D02*
X94454819Y-17092857D01*
X94454819Y-17092857D02*
X94454819Y-17188095D01*
X94454819Y-17188095D02*
X94407200Y-17283333D01*
X94407200Y-17283333D02*
X94359580Y-17330952D01*
X94359580Y-17330952D02*
X94264342Y-17378571D01*
X94264342Y-17378571D02*
X94073866Y-17426190D01*
X94073866Y-17426190D02*
X93835771Y-17426190D01*
X93835771Y-17426190D02*
X93645295Y-17378571D01*
X93645295Y-17378571D02*
X93550057Y-17330952D01*
X93550057Y-17330952D02*
X93502438Y-17283333D01*
X93502438Y-17283333D02*
X93454819Y-17188095D01*
X93788152Y-15997619D02*
X94454819Y-15997619D01*
X93788152Y-16426190D02*
X94311961Y-16426190D01*
X94311961Y-16426190D02*
X94407200Y-16378571D01*
X94407200Y-16378571D02*
X94454819Y-16283333D01*
X94454819Y-16283333D02*
X94454819Y-16140476D01*
X94454819Y-16140476D02*
X94407200Y-16045238D01*
X94407200Y-16045238D02*
X94359580Y-15997619D01*
X93931009Y-15188095D02*
X93931009Y-15521428D01*
X94454819Y-15521428D02*
X93454819Y-15521428D01*
X93454819Y-15521428D02*
X93454819Y-15045238D01*
X93454819Y-13997618D02*
X93454819Y-13378571D01*
X93454819Y-13378571D02*
X93835771Y-13711904D01*
X93835771Y-13711904D02*
X93835771Y-13569047D01*
X93835771Y-13569047D02*
X93883390Y-13473809D01*
X93883390Y-13473809D02*
X93931009Y-13426190D01*
X93931009Y-13426190D02*
X94026247Y-13378571D01*
X94026247Y-13378571D02*
X94264342Y-13378571D01*
X94264342Y-13378571D02*
X94359580Y-13426190D01*
X94359580Y-13426190D02*
X94407200Y-13473809D01*
X94407200Y-13473809D02*
X94454819Y-13569047D01*
X94454819Y-13569047D02*
X94454819Y-13854761D01*
X94454819Y-13854761D02*
X94407200Y-13949999D01*
X94407200Y-13949999D02*
X94359580Y-13997618D01*
X93454819Y-12473809D02*
X93454819Y-12949999D01*
X93454819Y-12949999D02*
X93931009Y-12997618D01*
X93931009Y-12997618D02*
X93883390Y-12949999D01*
X93883390Y-12949999D02*
X93835771Y-12854761D01*
X93835771Y-12854761D02*
X93835771Y-12616666D01*
X93835771Y-12616666D02*
X93883390Y-12521428D01*
X93883390Y-12521428D02*
X93931009Y-12473809D01*
X93931009Y-12473809D02*
X94026247Y-12426190D01*
X94026247Y-12426190D02*
X94264342Y-12426190D01*
X94264342Y-12426190D02*
X94359580Y-12473809D01*
X94359580Y-12473809D02*
X94407200Y-12521428D01*
X94407200Y-12521428D02*
X94454819Y-12616666D01*
X94454819Y-12616666D02*
X94454819Y-12854761D01*
X94454819Y-12854761D02*
X94407200Y-12949999D01*
X94407200Y-12949999D02*
X94359580Y-12997618D01*
X93454819Y-12140475D02*
X94454819Y-11807142D01*
X94454819Y-11807142D02*
X93454819Y-11473809D01*
X89109580Y-15616666D02*
X89157200Y-15664285D01*
X89157200Y-15664285D02*
X89204819Y-15807142D01*
X89204819Y-15807142D02*
X89204819Y-15902380D01*
X89204819Y-15902380D02*
X89157200Y-16045237D01*
X89157200Y-16045237D02*
X89061961Y-16140475D01*
X89061961Y-16140475D02*
X88966723Y-16188094D01*
X88966723Y-16188094D02*
X88776247Y-16235713D01*
X88776247Y-16235713D02*
X88633390Y-16235713D01*
X88633390Y-16235713D02*
X88442914Y-16188094D01*
X88442914Y-16188094D02*
X88347676Y-16140475D01*
X88347676Y-16140475D02*
X88252438Y-16045237D01*
X88252438Y-16045237D02*
X88204819Y-15902380D01*
X88204819Y-15902380D02*
X88204819Y-15807142D01*
X88204819Y-15807142D02*
X88252438Y-15664285D01*
X88252438Y-15664285D02*
X88300057Y-15616666D01*
X89204819Y-14664285D02*
X89204819Y-15235713D01*
X89204819Y-14949999D02*
X88204819Y-14949999D01*
X88204819Y-14949999D02*
X88347676Y-15045237D01*
X88347676Y-15045237D02*
X88442914Y-15140475D01*
X88442914Y-15140475D02*
X88490533Y-15235713D01*
X125085714Y-6600057D02*
X125133333Y-6552438D01*
X125133333Y-6552438D02*
X125228571Y-6504819D01*
X125228571Y-6504819D02*
X125466666Y-6504819D01*
X125466666Y-6504819D02*
X125561904Y-6552438D01*
X125561904Y-6552438D02*
X125609523Y-6600057D01*
X125609523Y-6600057D02*
X125657142Y-6695295D01*
X125657142Y-6695295D02*
X125657142Y-6790533D01*
X125657142Y-6790533D02*
X125609523Y-6933390D01*
X125609523Y-6933390D02*
X125038095Y-7504819D01*
X125038095Y-7504819D02*
X125657142Y-7504819D01*
X126038095Y-7219104D02*
X126514285Y-7219104D01*
X125942857Y-7504819D02*
X126276190Y-6504819D01*
X126276190Y-6504819D02*
X126609523Y-7504819D01*
X125466666Y-3231009D02*
X125133333Y-3231009D01*
X125133333Y-3754819D02*
X125133333Y-2754819D01*
X125133333Y-2754819D02*
X125609523Y-2754819D01*
X126514285Y-3754819D02*
X125942857Y-3754819D01*
X126228571Y-3754819D02*
X126228571Y-2754819D01*
X126228571Y-2754819D02*
X126133333Y-2897676D01*
X126133333Y-2897676D02*
X126038095Y-2992914D01*
X126038095Y-2992914D02*
X125942857Y-3040533D01*
X128428571Y-49304819D02*
X128428571Y-48304819D01*
X128428571Y-48304819D02*
X128761904Y-49019104D01*
X128761904Y-49019104D02*
X129095237Y-48304819D01*
X129095237Y-48304819D02*
X129095237Y-49304819D01*
X129714285Y-49304819D02*
X129619047Y-49257200D01*
X129619047Y-49257200D02*
X129571428Y-49209580D01*
X129571428Y-49209580D02*
X129523809Y-49114342D01*
X129523809Y-49114342D02*
X129523809Y-48828628D01*
X129523809Y-48828628D02*
X129571428Y-48733390D01*
X129571428Y-48733390D02*
X129619047Y-48685771D01*
X129619047Y-48685771D02*
X129714285Y-48638152D01*
X129714285Y-48638152D02*
X129857142Y-48638152D01*
X129857142Y-48638152D02*
X129952380Y-48685771D01*
X129952380Y-48685771D02*
X129999999Y-48733390D01*
X129999999Y-48733390D02*
X130047618Y-48828628D01*
X130047618Y-48828628D02*
X130047618Y-49114342D01*
X130047618Y-49114342D02*
X129999999Y-49209580D01*
X129999999Y-49209580D02*
X129952380Y-49257200D01*
X129952380Y-49257200D02*
X129857142Y-49304819D01*
X129857142Y-49304819D02*
X129714285Y-49304819D01*
X130904761Y-48638152D02*
X130904761Y-49304819D01*
X130476190Y-48638152D02*
X130476190Y-49161961D01*
X130476190Y-49161961D02*
X130523809Y-49257200D01*
X130523809Y-49257200D02*
X130619047Y-49304819D01*
X130619047Y-49304819D02*
X130761904Y-49304819D01*
X130761904Y-49304819D02*
X130857142Y-49257200D01*
X130857142Y-49257200D02*
X130904761Y-49209580D01*
X131380952Y-48638152D02*
X131380952Y-49304819D01*
X131380952Y-48733390D02*
X131428571Y-48685771D01*
X131428571Y-48685771D02*
X131523809Y-48638152D01*
X131523809Y-48638152D02*
X131666666Y-48638152D01*
X131666666Y-48638152D02*
X131761904Y-48685771D01*
X131761904Y-48685771D02*
X131809523Y-48781009D01*
X131809523Y-48781009D02*
X131809523Y-49304819D01*
X132142857Y-48638152D02*
X132523809Y-48638152D01*
X132285714Y-48304819D02*
X132285714Y-49161961D01*
X132285714Y-49161961D02*
X132333333Y-49257200D01*
X132333333Y-49257200D02*
X132428571Y-49304819D01*
X132428571Y-49304819D02*
X132523809Y-49304819D01*
X132857143Y-49304819D02*
X132857143Y-48638152D01*
X132857143Y-48304819D02*
X132809524Y-48352438D01*
X132809524Y-48352438D02*
X132857143Y-48400057D01*
X132857143Y-48400057D02*
X132904762Y-48352438D01*
X132904762Y-48352438D02*
X132857143Y-48304819D01*
X132857143Y-48304819D02*
X132857143Y-48400057D01*
X133333333Y-48638152D02*
X133333333Y-49304819D01*
X133333333Y-48733390D02*
X133380952Y-48685771D01*
X133380952Y-48685771D02*
X133476190Y-48638152D01*
X133476190Y-48638152D02*
X133619047Y-48638152D01*
X133619047Y-48638152D02*
X133714285Y-48685771D01*
X133714285Y-48685771D02*
X133761904Y-48781009D01*
X133761904Y-48781009D02*
X133761904Y-49304819D01*
X134666666Y-48638152D02*
X134666666Y-49447676D01*
X134666666Y-49447676D02*
X134619047Y-49542914D01*
X134619047Y-49542914D02*
X134571428Y-49590533D01*
X134571428Y-49590533D02*
X134476190Y-49638152D01*
X134476190Y-49638152D02*
X134333333Y-49638152D01*
X134333333Y-49638152D02*
X134238095Y-49590533D01*
X134666666Y-49257200D02*
X134571428Y-49304819D01*
X134571428Y-49304819D02*
X134380952Y-49304819D01*
X134380952Y-49304819D02*
X134285714Y-49257200D01*
X134285714Y-49257200D02*
X134238095Y-49209580D01*
X134238095Y-49209580D02*
X134190476Y-49114342D01*
X134190476Y-49114342D02*
X134190476Y-48828628D01*
X134190476Y-48828628D02*
X134238095Y-48733390D01*
X134238095Y-48733390D02*
X134285714Y-48685771D01*
X134285714Y-48685771D02*
X134380952Y-48638152D01*
X134380952Y-48638152D02*
X134571428Y-48638152D01*
X134571428Y-48638152D02*
X134666666Y-48685771D01*
X135142857Y-49304819D02*
X135142857Y-48304819D01*
X135142857Y-48781009D02*
X135714285Y-48781009D01*
X135714285Y-49304819D02*
X135714285Y-48304819D01*
X136333333Y-49304819D02*
X136238095Y-49257200D01*
X136238095Y-49257200D02*
X136190476Y-49209580D01*
X136190476Y-49209580D02*
X136142857Y-49114342D01*
X136142857Y-49114342D02*
X136142857Y-48828628D01*
X136142857Y-48828628D02*
X136190476Y-48733390D01*
X136190476Y-48733390D02*
X136238095Y-48685771D01*
X136238095Y-48685771D02*
X136333333Y-48638152D01*
X136333333Y-48638152D02*
X136476190Y-48638152D01*
X136476190Y-48638152D02*
X136571428Y-48685771D01*
X136571428Y-48685771D02*
X136619047Y-48733390D01*
X136619047Y-48733390D02*
X136666666Y-48828628D01*
X136666666Y-48828628D02*
X136666666Y-49114342D01*
X136666666Y-49114342D02*
X136619047Y-49209580D01*
X136619047Y-49209580D02*
X136571428Y-49257200D01*
X136571428Y-49257200D02*
X136476190Y-49304819D01*
X136476190Y-49304819D02*
X136333333Y-49304819D01*
X137238095Y-49304819D02*
X137142857Y-49257200D01*
X137142857Y-49257200D02*
X137095238Y-49161961D01*
X137095238Y-49161961D02*
X137095238Y-48304819D01*
X138000000Y-49257200D02*
X137904762Y-49304819D01*
X137904762Y-49304819D02*
X137714286Y-49304819D01*
X137714286Y-49304819D02*
X137619048Y-49257200D01*
X137619048Y-49257200D02*
X137571429Y-49161961D01*
X137571429Y-49161961D02*
X137571429Y-48781009D01*
X137571429Y-48781009D02*
X137619048Y-48685771D01*
X137619048Y-48685771D02*
X137714286Y-48638152D01*
X137714286Y-48638152D02*
X137904762Y-48638152D01*
X137904762Y-48638152D02*
X138000000Y-48685771D01*
X138000000Y-48685771D02*
X138047619Y-48781009D01*
X138047619Y-48781009D02*
X138047619Y-48876247D01*
X138047619Y-48876247D02*
X137571429Y-48971485D01*
X138238096Y-49400057D02*
X139000000Y-49400057D01*
X139238096Y-49304819D02*
X139238096Y-48304819D01*
X139238096Y-48304819D02*
X139619048Y-48304819D01*
X139619048Y-48304819D02*
X139714286Y-48352438D01*
X139714286Y-48352438D02*
X139761905Y-48400057D01*
X139761905Y-48400057D02*
X139809524Y-48495295D01*
X139809524Y-48495295D02*
X139809524Y-48638152D01*
X139809524Y-48638152D02*
X139761905Y-48733390D01*
X139761905Y-48733390D02*
X139714286Y-48781009D01*
X139714286Y-48781009D02*
X139619048Y-48828628D01*
X139619048Y-48828628D02*
X139238096Y-48828628D01*
X140666667Y-49304819D02*
X140666667Y-48781009D01*
X140666667Y-48781009D02*
X140619048Y-48685771D01*
X140619048Y-48685771D02*
X140523810Y-48638152D01*
X140523810Y-48638152D02*
X140333334Y-48638152D01*
X140333334Y-48638152D02*
X140238096Y-48685771D01*
X140666667Y-49257200D02*
X140571429Y-49304819D01*
X140571429Y-49304819D02*
X140333334Y-49304819D01*
X140333334Y-49304819D02*
X140238096Y-49257200D01*
X140238096Y-49257200D02*
X140190477Y-49161961D01*
X140190477Y-49161961D02*
X140190477Y-49066723D01*
X140190477Y-49066723D02*
X140238096Y-48971485D01*
X140238096Y-48971485D02*
X140333334Y-48923866D01*
X140333334Y-48923866D02*
X140571429Y-48923866D01*
X140571429Y-48923866D02*
X140666667Y-48876247D01*
X141571429Y-49304819D02*
X141571429Y-48304819D01*
X141571429Y-49257200D02*
X141476191Y-49304819D01*
X141476191Y-49304819D02*
X141285715Y-49304819D01*
X141285715Y-49304819D02*
X141190477Y-49257200D01*
X141190477Y-49257200D02*
X141142858Y-49209580D01*
X141142858Y-49209580D02*
X141095239Y-49114342D01*
X141095239Y-49114342D02*
X141095239Y-48828628D01*
X141095239Y-48828628D02*
X141142858Y-48733390D01*
X141142858Y-48733390D02*
X141190477Y-48685771D01*
X141190477Y-48685771D02*
X141285715Y-48638152D01*
X141285715Y-48638152D02*
X141476191Y-48638152D01*
X141476191Y-48638152D02*
X141571429Y-48685771D01*
X134538095Y-45454819D02*
X134538095Y-44454819D01*
X134538095Y-44931009D02*
X135109523Y-44931009D01*
X135109523Y-45454819D02*
X135109523Y-44454819D01*
X136109523Y-45454819D02*
X135538095Y-45454819D01*
X135823809Y-45454819D02*
X135823809Y-44454819D01*
X135823809Y-44454819D02*
X135728571Y-44597676D01*
X135728571Y-44597676D02*
X135633333Y-44692914D01*
X135633333Y-44692914D02*
X135538095Y-44740533D01*
X131801904Y-23129580D02*
X131754285Y-23177200D01*
X131754285Y-23177200D02*
X131611428Y-23224819D01*
X131611428Y-23224819D02*
X131516190Y-23224819D01*
X131516190Y-23224819D02*
X131373333Y-23177200D01*
X131373333Y-23177200D02*
X131278095Y-23081961D01*
X131278095Y-23081961D02*
X131230476Y-22986723D01*
X131230476Y-22986723D02*
X131182857Y-22796247D01*
X131182857Y-22796247D02*
X131182857Y-22653390D01*
X131182857Y-22653390D02*
X131230476Y-22462914D01*
X131230476Y-22462914D02*
X131278095Y-22367676D01*
X131278095Y-22367676D02*
X131373333Y-22272438D01*
X131373333Y-22272438D02*
X131516190Y-22224819D01*
X131516190Y-22224819D02*
X131611428Y-22224819D01*
X131611428Y-22224819D02*
X131754285Y-22272438D01*
X131754285Y-22272438D02*
X131801904Y-22320057D01*
X132373333Y-23224819D02*
X132278095Y-23177200D01*
X132278095Y-23177200D02*
X132230476Y-23129580D01*
X132230476Y-23129580D02*
X132182857Y-23034342D01*
X132182857Y-23034342D02*
X132182857Y-22748628D01*
X132182857Y-22748628D02*
X132230476Y-22653390D01*
X132230476Y-22653390D02*
X132278095Y-22605771D01*
X132278095Y-22605771D02*
X132373333Y-22558152D01*
X132373333Y-22558152D02*
X132516190Y-22558152D01*
X132516190Y-22558152D02*
X132611428Y-22605771D01*
X132611428Y-22605771D02*
X132659047Y-22653390D01*
X132659047Y-22653390D02*
X132706666Y-22748628D01*
X132706666Y-22748628D02*
X132706666Y-23034342D01*
X132706666Y-23034342D02*
X132659047Y-23129580D01*
X132659047Y-23129580D02*
X132611428Y-23177200D01*
X132611428Y-23177200D02*
X132516190Y-23224819D01*
X132516190Y-23224819D02*
X132373333Y-23224819D01*
X133135238Y-22558152D02*
X133135238Y-23224819D01*
X133135238Y-22653390D02*
X133182857Y-22605771D01*
X133182857Y-22605771D02*
X133278095Y-22558152D01*
X133278095Y-22558152D02*
X133420952Y-22558152D01*
X133420952Y-22558152D02*
X133516190Y-22605771D01*
X133516190Y-22605771D02*
X133563809Y-22701009D01*
X133563809Y-22701009D02*
X133563809Y-23224819D01*
X134040000Y-22558152D02*
X134040000Y-23224819D01*
X134040000Y-22653390D02*
X134087619Y-22605771D01*
X134087619Y-22605771D02*
X134182857Y-22558152D01*
X134182857Y-22558152D02*
X134325714Y-22558152D01*
X134325714Y-22558152D02*
X134420952Y-22605771D01*
X134420952Y-22605771D02*
X134468571Y-22701009D01*
X134468571Y-22701009D02*
X134468571Y-23224819D01*
X134706667Y-23320057D02*
X135468571Y-23320057D01*
X135897143Y-22224819D02*
X135992381Y-22224819D01*
X135992381Y-22224819D02*
X136087619Y-22272438D01*
X136087619Y-22272438D02*
X136135238Y-22320057D01*
X136135238Y-22320057D02*
X136182857Y-22415295D01*
X136182857Y-22415295D02*
X136230476Y-22605771D01*
X136230476Y-22605771D02*
X136230476Y-22843866D01*
X136230476Y-22843866D02*
X136182857Y-23034342D01*
X136182857Y-23034342D02*
X136135238Y-23129580D01*
X136135238Y-23129580D02*
X136087619Y-23177200D01*
X136087619Y-23177200D02*
X135992381Y-23224819D01*
X135992381Y-23224819D02*
X135897143Y-23224819D01*
X135897143Y-23224819D02*
X135801905Y-23177200D01*
X135801905Y-23177200D02*
X135754286Y-23129580D01*
X135754286Y-23129580D02*
X135706667Y-23034342D01*
X135706667Y-23034342D02*
X135659048Y-22843866D01*
X135659048Y-22843866D02*
X135659048Y-22605771D01*
X135659048Y-22605771D02*
X135706667Y-22415295D01*
X135706667Y-22415295D02*
X135754286Y-22320057D01*
X135754286Y-22320057D02*
X135801905Y-22272438D01*
X135801905Y-22272438D02*
X135897143Y-22224819D01*
X137182857Y-23224819D02*
X136611429Y-23224819D01*
X136897143Y-23224819D02*
X136897143Y-22224819D01*
X136897143Y-22224819D02*
X136801905Y-22367676D01*
X136801905Y-22367676D02*
X136706667Y-22462914D01*
X136706667Y-22462914D02*
X136611429Y-22510533D01*
X137516191Y-23224819D02*
X138040000Y-22558152D01*
X137516191Y-22558152D02*
X138040000Y-23224819D01*
X138611429Y-22224819D02*
X138706667Y-22224819D01*
X138706667Y-22224819D02*
X138801905Y-22272438D01*
X138801905Y-22272438D02*
X138849524Y-22320057D01*
X138849524Y-22320057D02*
X138897143Y-22415295D01*
X138897143Y-22415295D02*
X138944762Y-22605771D01*
X138944762Y-22605771D02*
X138944762Y-22843866D01*
X138944762Y-22843866D02*
X138897143Y-23034342D01*
X138897143Y-23034342D02*
X138849524Y-23129580D01*
X138849524Y-23129580D02*
X138801905Y-23177200D01*
X138801905Y-23177200D02*
X138706667Y-23224819D01*
X138706667Y-23224819D02*
X138611429Y-23224819D01*
X138611429Y-23224819D02*
X138516191Y-23177200D01*
X138516191Y-23177200D02*
X138468572Y-23129580D01*
X138468572Y-23129580D02*
X138420953Y-23034342D01*
X138420953Y-23034342D02*
X138373334Y-22843866D01*
X138373334Y-22843866D02*
X138373334Y-22605771D01*
X138373334Y-22605771D02*
X138420953Y-22415295D01*
X138420953Y-22415295D02*
X138468572Y-22320057D01*
X138468572Y-22320057D02*
X138516191Y-22272438D01*
X138516191Y-22272438D02*
X138611429Y-22224819D01*
X139897143Y-23224819D02*
X139325715Y-23224819D01*
X139611429Y-23224819D02*
X139611429Y-22224819D01*
X139611429Y-22224819D02*
X139516191Y-22367676D01*
X139516191Y-22367676D02*
X139420953Y-22462914D01*
X139420953Y-22462914D02*
X139325715Y-22510533D01*
X135206666Y-19454819D02*
X135206666Y-20169104D01*
X135206666Y-20169104D02*
X135159047Y-20311961D01*
X135159047Y-20311961D02*
X135063809Y-20407200D01*
X135063809Y-20407200D02*
X134920952Y-20454819D01*
X134920952Y-20454819D02*
X134825714Y-20454819D01*
X136159047Y-19454819D02*
X135682857Y-19454819D01*
X135682857Y-19454819D02*
X135635238Y-19931009D01*
X135635238Y-19931009D02*
X135682857Y-19883390D01*
X135682857Y-19883390D02*
X135778095Y-19835771D01*
X135778095Y-19835771D02*
X136016190Y-19835771D01*
X136016190Y-19835771D02*
X136111428Y-19883390D01*
X136111428Y-19883390D02*
X136159047Y-19931009D01*
X136159047Y-19931009D02*
X136206666Y-20026247D01*
X136206666Y-20026247D02*
X136206666Y-20264342D01*
X136206666Y-20264342D02*
X136159047Y-20359580D01*
X136159047Y-20359580D02*
X136111428Y-20407200D01*
X136111428Y-20407200D02*
X136016190Y-20454819D01*
X136016190Y-20454819D02*
X135778095Y-20454819D01*
X135778095Y-20454819D02*
X135682857Y-20407200D01*
X135682857Y-20407200D02*
X135635238Y-20359580D01*
X204819Y-21406873D02*
X204819Y-21978301D01*
X204819Y-21692587D02*
X-795180Y-21692587D01*
X-795180Y-21692587D02*
X-652323Y-21787825D01*
X-652323Y-21787825D02*
X-557085Y-21883063D01*
X-557085Y-21883063D02*
X-509466Y-21978301D01*
X-795180Y-20787825D02*
X-795180Y-20692587D01*
X-795180Y-20692587D02*
X-747561Y-20597349D01*
X-747561Y-20597349D02*
X-699942Y-20549730D01*
X-699942Y-20549730D02*
X-604704Y-20502111D01*
X-604704Y-20502111D02*
X-414228Y-20454492D01*
X-414228Y-20454492D02*
X-176133Y-20454492D01*
X-176133Y-20454492D02*
X14342Y-20502111D01*
X14342Y-20502111D02*
X109580Y-20549730D01*
X109580Y-20549730D02*
X157200Y-20597349D01*
X157200Y-20597349D02*
X204819Y-20692587D01*
X204819Y-20692587D02*
X204819Y-20787825D01*
X204819Y-20787825D02*
X157200Y-20883063D01*
X157200Y-20883063D02*
X109580Y-20930682D01*
X109580Y-20930682D02*
X14342Y-20978301D01*
X14342Y-20978301D02*
X-176133Y-21025920D01*
X-176133Y-21025920D02*
X-414228Y-21025920D01*
X-414228Y-21025920D02*
X-604704Y-20978301D01*
X-604704Y-20978301D02*
X-699942Y-20930682D01*
X-699942Y-20930682D02*
X-747561Y-20883063D01*
X-747561Y-20883063D02*
X-795180Y-20787825D01*
X-795180Y-19835444D02*
X-795180Y-19740206D01*
X-795180Y-19740206D02*
X-747561Y-19644968D01*
X-747561Y-19644968D02*
X-699942Y-19597349D01*
X-699942Y-19597349D02*
X-604704Y-19549730D01*
X-604704Y-19549730D02*
X-414228Y-19502111D01*
X-414228Y-19502111D02*
X-176133Y-19502111D01*
X-176133Y-19502111D02*
X14342Y-19549730D01*
X14342Y-19549730D02*
X109580Y-19597349D01*
X109580Y-19597349D02*
X157200Y-19644968D01*
X157200Y-19644968D02*
X204819Y-19740206D01*
X204819Y-19740206D02*
X204819Y-19835444D01*
X204819Y-19835444D02*
X157200Y-19930682D01*
X157200Y-19930682D02*
X109580Y-19978301D01*
X109580Y-19978301D02*
X14342Y-20025920D01*
X14342Y-20025920D02*
X-176133Y-20073539D01*
X-176133Y-20073539D02*
X-414228Y-20073539D01*
X-414228Y-20073539D02*
X-604704Y-20025920D01*
X-604704Y-20025920D02*
X-699942Y-19978301D01*
X-699942Y-19978301D02*
X-747561Y-19930682D01*
X-747561Y-19930682D02*
X-795180Y-19835444D01*
X-461847Y-18644968D02*
X204819Y-18644968D01*
X-461847Y-19073539D02*
X61961Y-19073539D01*
X61961Y-19073539D02*
X157200Y-19025920D01*
X157200Y-19025920D02*
X204819Y-18930682D01*
X204819Y-18930682D02*
X204819Y-18787825D01*
X204819Y-18787825D02*
X157200Y-18692587D01*
X157200Y-18692587D02*
X109580Y-18644968D01*
X-318990Y-17835444D02*
X-318990Y-18168777D01*
X204819Y-18168777D02*
X-795180Y-18168777D01*
X-795180Y-18168777D02*
X-795180Y-17692587D01*
X-795180Y-16644967D02*
X-795180Y-16025920D01*
X-795180Y-16025920D02*
X-414228Y-16359253D01*
X-414228Y-16359253D02*
X-414228Y-16216396D01*
X-414228Y-16216396D02*
X-366609Y-16121158D01*
X-366609Y-16121158D02*
X-318990Y-16073539D01*
X-318990Y-16073539D02*
X-223752Y-16025920D01*
X-223752Y-16025920D02*
X14342Y-16025920D01*
X14342Y-16025920D02*
X109580Y-16073539D01*
X109580Y-16073539D02*
X157200Y-16121158D01*
X157200Y-16121158D02*
X204819Y-16216396D01*
X204819Y-16216396D02*
X204819Y-16502110D01*
X204819Y-16502110D02*
X157200Y-16597348D01*
X157200Y-16597348D02*
X109580Y-16644967D01*
X-795180Y-15121158D02*
X-795180Y-15597348D01*
X-795180Y-15597348D02*
X-318990Y-15644967D01*
X-318990Y-15644967D02*
X-366609Y-15597348D01*
X-366609Y-15597348D02*
X-414228Y-15502110D01*
X-414228Y-15502110D02*
X-414228Y-15264015D01*
X-414228Y-15264015D02*
X-366609Y-15168777D01*
X-366609Y-15168777D02*
X-318990Y-15121158D01*
X-318990Y-15121158D02*
X-223752Y-15073539D01*
X-223752Y-15073539D02*
X14342Y-15073539D01*
X14342Y-15073539D02*
X109580Y-15121158D01*
X109580Y-15121158D02*
X157200Y-15168777D01*
X157200Y-15168777D02*
X204819Y-15264015D01*
X204819Y-15264015D02*
X204819Y-15502110D01*
X204819Y-15502110D02*
X157200Y-15597348D01*
X157200Y-15597348D02*
X109580Y-15644967D01*
X-795180Y-14787824D02*
X204819Y-14454491D01*
X204819Y-14454491D02*
X-795180Y-14121158D01*
X5359580Y-18264015D02*
X5407200Y-18311634D01*
X5407200Y-18311634D02*
X5454819Y-18454491D01*
X5454819Y-18454491D02*
X5454819Y-18549729D01*
X5454819Y-18549729D02*
X5407200Y-18692586D01*
X5407200Y-18692586D02*
X5311961Y-18787824D01*
X5311961Y-18787824D02*
X5216723Y-18835443D01*
X5216723Y-18835443D02*
X5026247Y-18883062D01*
X5026247Y-18883062D02*
X4883390Y-18883062D01*
X4883390Y-18883062D02*
X4692914Y-18835443D01*
X4692914Y-18835443D02*
X4597676Y-18787824D01*
X4597676Y-18787824D02*
X4502438Y-18692586D01*
X4502438Y-18692586D02*
X4454819Y-18549729D01*
X4454819Y-18549729D02*
X4454819Y-18454491D01*
X4454819Y-18454491D02*
X4502438Y-18311634D01*
X4502438Y-18311634D02*
X4550057Y-18264015D01*
X4454819Y-17930681D02*
X4454819Y-17311634D01*
X4454819Y-17311634D02*
X4835771Y-17644967D01*
X4835771Y-17644967D02*
X4835771Y-17502110D01*
X4835771Y-17502110D02*
X4883390Y-17406872D01*
X4883390Y-17406872D02*
X4931009Y-17359253D01*
X4931009Y-17359253D02*
X5026247Y-17311634D01*
X5026247Y-17311634D02*
X5264342Y-17311634D01*
X5264342Y-17311634D02*
X5359580Y-17359253D01*
X5359580Y-17359253D02*
X5407200Y-17406872D01*
X5407200Y-17406872D02*
X5454819Y-17502110D01*
X5454819Y-17502110D02*
X5454819Y-17787824D01*
X5454819Y-17787824D02*
X5407200Y-17883062D01*
X5407200Y-17883062D02*
X5359580Y-17930681D01*
X74102381Y-46281200D02*
X74245238Y-46328819D01*
X74245238Y-46328819D02*
X74483333Y-46328819D01*
X74483333Y-46328819D02*
X74578571Y-46281200D01*
X74578571Y-46281200D02*
X74626190Y-46233580D01*
X74626190Y-46233580D02*
X74673809Y-46138342D01*
X74673809Y-46138342D02*
X74673809Y-46043104D01*
X74673809Y-46043104D02*
X74626190Y-45947866D01*
X74626190Y-45947866D02*
X74578571Y-45900247D01*
X74578571Y-45900247D02*
X74483333Y-45852628D01*
X74483333Y-45852628D02*
X74292857Y-45805009D01*
X74292857Y-45805009D02*
X74197619Y-45757390D01*
X74197619Y-45757390D02*
X74150000Y-45709771D01*
X74150000Y-45709771D02*
X74102381Y-45614533D01*
X74102381Y-45614533D02*
X74102381Y-45519295D01*
X74102381Y-45519295D02*
X74150000Y-45424057D01*
X74150000Y-45424057D02*
X74197619Y-45376438D01*
X74197619Y-45376438D02*
X74292857Y-45328819D01*
X74292857Y-45328819D02*
X74530952Y-45328819D01*
X74530952Y-45328819D02*
X74673809Y-45376438D01*
X75007143Y-45328819D02*
X75245238Y-46328819D01*
X75245238Y-46328819D02*
X75435714Y-45614533D01*
X75435714Y-45614533D02*
X75626190Y-46328819D01*
X75626190Y-46328819D02*
X75864286Y-45328819D01*
X76007143Y-46424057D02*
X76769047Y-46424057D01*
X77007143Y-46328819D02*
X77007143Y-45328819D01*
X77007143Y-45328819D02*
X77388095Y-45328819D01*
X77388095Y-45328819D02*
X77483333Y-45376438D01*
X77483333Y-45376438D02*
X77530952Y-45424057D01*
X77530952Y-45424057D02*
X77578571Y-45519295D01*
X77578571Y-45519295D02*
X77578571Y-45662152D01*
X77578571Y-45662152D02*
X77530952Y-45757390D01*
X77530952Y-45757390D02*
X77483333Y-45805009D01*
X77483333Y-45805009D02*
X77388095Y-45852628D01*
X77388095Y-45852628D02*
X77007143Y-45852628D01*
X78435714Y-45662152D02*
X78435714Y-46328819D01*
X78007143Y-45662152D02*
X78007143Y-46185961D01*
X78007143Y-46185961D02*
X78054762Y-46281200D01*
X78054762Y-46281200D02*
X78150000Y-46328819D01*
X78150000Y-46328819D02*
X78292857Y-46328819D01*
X78292857Y-46328819D02*
X78388095Y-46281200D01*
X78388095Y-46281200D02*
X78435714Y-46233580D01*
X78864286Y-46281200D02*
X78959524Y-46328819D01*
X78959524Y-46328819D02*
X79150000Y-46328819D01*
X79150000Y-46328819D02*
X79245238Y-46281200D01*
X79245238Y-46281200D02*
X79292857Y-46185961D01*
X79292857Y-46185961D02*
X79292857Y-46138342D01*
X79292857Y-46138342D02*
X79245238Y-46043104D01*
X79245238Y-46043104D02*
X79150000Y-45995485D01*
X79150000Y-45995485D02*
X79007143Y-45995485D01*
X79007143Y-45995485D02*
X78911905Y-45947866D01*
X78911905Y-45947866D02*
X78864286Y-45852628D01*
X78864286Y-45852628D02*
X78864286Y-45805009D01*
X78864286Y-45805009D02*
X78911905Y-45709771D01*
X78911905Y-45709771D02*
X79007143Y-45662152D01*
X79007143Y-45662152D02*
X79150000Y-45662152D01*
X79150000Y-45662152D02*
X79245238Y-45709771D01*
X79721429Y-46328819D02*
X79721429Y-45328819D01*
X80150000Y-46328819D02*
X80150000Y-45805009D01*
X80150000Y-45805009D02*
X80102381Y-45709771D01*
X80102381Y-45709771D02*
X80007143Y-45662152D01*
X80007143Y-45662152D02*
X79864286Y-45662152D01*
X79864286Y-45662152D02*
X79769048Y-45709771D01*
X79769048Y-45709771D02*
X79721429Y-45757390D01*
X75816667Y-30533200D02*
X75959524Y-30580819D01*
X75959524Y-30580819D02*
X76197619Y-30580819D01*
X76197619Y-30580819D02*
X76292857Y-30533200D01*
X76292857Y-30533200D02*
X76340476Y-30485580D01*
X76340476Y-30485580D02*
X76388095Y-30390342D01*
X76388095Y-30390342D02*
X76388095Y-30295104D01*
X76388095Y-30295104D02*
X76340476Y-30199866D01*
X76340476Y-30199866D02*
X76292857Y-30152247D01*
X76292857Y-30152247D02*
X76197619Y-30104628D01*
X76197619Y-30104628D02*
X76007143Y-30057009D01*
X76007143Y-30057009D02*
X75911905Y-30009390D01*
X75911905Y-30009390D02*
X75864286Y-29961771D01*
X75864286Y-29961771D02*
X75816667Y-29866533D01*
X75816667Y-29866533D02*
X75816667Y-29771295D01*
X75816667Y-29771295D02*
X75864286Y-29676057D01*
X75864286Y-29676057D02*
X75911905Y-29628438D01*
X75911905Y-29628438D02*
X76007143Y-29580819D01*
X76007143Y-29580819D02*
X76245238Y-29580819D01*
X76245238Y-29580819D02*
X76388095Y-29628438D01*
X76721429Y-29580819D02*
X76959524Y-30580819D01*
X76959524Y-30580819D02*
X77150000Y-29866533D01*
X77150000Y-29866533D02*
X77340476Y-30580819D01*
X77340476Y-30580819D02*
X77578572Y-29580819D01*
X78388095Y-29914152D02*
X78388095Y-30580819D01*
X78150000Y-29533200D02*
X77911905Y-30247485D01*
X77911905Y-30247485D02*
X78530952Y-30247485D01*
X16761904Y-11324580D02*
X16714285Y-11372200D01*
X16714285Y-11372200D02*
X16571428Y-11419819D01*
X16571428Y-11419819D02*
X16476190Y-11419819D01*
X16476190Y-11419819D02*
X16333333Y-11372200D01*
X16333333Y-11372200D02*
X16238095Y-11276961D01*
X16238095Y-11276961D02*
X16190476Y-11181723D01*
X16190476Y-11181723D02*
X16142857Y-10991247D01*
X16142857Y-10991247D02*
X16142857Y-10848390D01*
X16142857Y-10848390D02*
X16190476Y-10657914D01*
X16190476Y-10657914D02*
X16238095Y-10562676D01*
X16238095Y-10562676D02*
X16333333Y-10467438D01*
X16333333Y-10467438D02*
X16476190Y-10419819D01*
X16476190Y-10419819D02*
X16571428Y-10419819D01*
X16571428Y-10419819D02*
X16714285Y-10467438D01*
X16714285Y-10467438D02*
X16761904Y-10515057D01*
X17333333Y-11419819D02*
X17238095Y-11372200D01*
X17238095Y-11372200D02*
X17190476Y-11324580D01*
X17190476Y-11324580D02*
X17142857Y-11229342D01*
X17142857Y-11229342D02*
X17142857Y-10943628D01*
X17142857Y-10943628D02*
X17190476Y-10848390D01*
X17190476Y-10848390D02*
X17238095Y-10800771D01*
X17238095Y-10800771D02*
X17333333Y-10753152D01*
X17333333Y-10753152D02*
X17476190Y-10753152D01*
X17476190Y-10753152D02*
X17571428Y-10800771D01*
X17571428Y-10800771D02*
X17619047Y-10848390D01*
X17619047Y-10848390D02*
X17666666Y-10943628D01*
X17666666Y-10943628D02*
X17666666Y-11229342D01*
X17666666Y-11229342D02*
X17619047Y-11324580D01*
X17619047Y-11324580D02*
X17571428Y-11372200D01*
X17571428Y-11372200D02*
X17476190Y-11419819D01*
X17476190Y-11419819D02*
X17333333Y-11419819D01*
X18095238Y-10753152D02*
X18095238Y-11419819D01*
X18095238Y-10848390D02*
X18142857Y-10800771D01*
X18142857Y-10800771D02*
X18238095Y-10753152D01*
X18238095Y-10753152D02*
X18380952Y-10753152D01*
X18380952Y-10753152D02*
X18476190Y-10800771D01*
X18476190Y-10800771D02*
X18523809Y-10896009D01*
X18523809Y-10896009D02*
X18523809Y-11419819D01*
X19000000Y-10753152D02*
X19000000Y-11419819D01*
X19000000Y-10848390D02*
X19047619Y-10800771D01*
X19047619Y-10800771D02*
X19142857Y-10753152D01*
X19142857Y-10753152D02*
X19285714Y-10753152D01*
X19285714Y-10753152D02*
X19380952Y-10800771D01*
X19380952Y-10800771D02*
X19428571Y-10896009D01*
X19428571Y-10896009D02*
X19428571Y-11419819D01*
X19666667Y-11515057D02*
X20428571Y-11515057D01*
X20857143Y-10419819D02*
X20952381Y-10419819D01*
X20952381Y-10419819D02*
X21047619Y-10467438D01*
X21047619Y-10467438D02*
X21095238Y-10515057D01*
X21095238Y-10515057D02*
X21142857Y-10610295D01*
X21142857Y-10610295D02*
X21190476Y-10800771D01*
X21190476Y-10800771D02*
X21190476Y-11038866D01*
X21190476Y-11038866D02*
X21142857Y-11229342D01*
X21142857Y-11229342D02*
X21095238Y-11324580D01*
X21095238Y-11324580D02*
X21047619Y-11372200D01*
X21047619Y-11372200D02*
X20952381Y-11419819D01*
X20952381Y-11419819D02*
X20857143Y-11419819D01*
X20857143Y-11419819D02*
X20761905Y-11372200D01*
X20761905Y-11372200D02*
X20714286Y-11324580D01*
X20714286Y-11324580D02*
X20666667Y-11229342D01*
X20666667Y-11229342D02*
X20619048Y-11038866D01*
X20619048Y-11038866D02*
X20619048Y-10800771D01*
X20619048Y-10800771D02*
X20666667Y-10610295D01*
X20666667Y-10610295D02*
X20714286Y-10515057D01*
X20714286Y-10515057D02*
X20761905Y-10467438D01*
X20761905Y-10467438D02*
X20857143Y-10419819D01*
X22142857Y-11419819D02*
X21571429Y-11419819D01*
X21857143Y-11419819D02*
X21857143Y-10419819D01*
X21857143Y-10419819D02*
X21761905Y-10562676D01*
X21761905Y-10562676D02*
X21666667Y-10657914D01*
X21666667Y-10657914D02*
X21571429Y-10705533D01*
X22476191Y-11419819D02*
X23000000Y-10753152D01*
X22476191Y-10753152D02*
X23000000Y-11419819D01*
X23571429Y-10419819D02*
X23666667Y-10419819D01*
X23666667Y-10419819D02*
X23761905Y-10467438D01*
X23761905Y-10467438D02*
X23809524Y-10515057D01*
X23809524Y-10515057D02*
X23857143Y-10610295D01*
X23857143Y-10610295D02*
X23904762Y-10800771D01*
X23904762Y-10800771D02*
X23904762Y-11038866D01*
X23904762Y-11038866D02*
X23857143Y-11229342D01*
X23857143Y-11229342D02*
X23809524Y-11324580D01*
X23809524Y-11324580D02*
X23761905Y-11372200D01*
X23761905Y-11372200D02*
X23666667Y-11419819D01*
X23666667Y-11419819D02*
X23571429Y-11419819D01*
X23571429Y-11419819D02*
X23476191Y-11372200D01*
X23476191Y-11372200D02*
X23428572Y-11324580D01*
X23428572Y-11324580D02*
X23380953Y-11229342D01*
X23380953Y-11229342D02*
X23333334Y-11038866D01*
X23333334Y-11038866D02*
X23333334Y-10800771D01*
X23333334Y-10800771D02*
X23380953Y-10610295D01*
X23380953Y-10610295D02*
X23428572Y-10515057D01*
X23428572Y-10515057D02*
X23476191Y-10467438D01*
X23476191Y-10467438D02*
X23571429Y-10419819D01*
X24761905Y-10753152D02*
X24761905Y-11419819D01*
X24523810Y-10372200D02*
X24285715Y-11086485D01*
X24285715Y-11086485D02*
X24904762Y-11086485D01*
X20166666Y-7959819D02*
X20166666Y-8674104D01*
X20166666Y-8674104D02*
X20119047Y-8816961D01*
X20119047Y-8816961D02*
X20023809Y-8912200D01*
X20023809Y-8912200D02*
X19880952Y-8959819D01*
X19880952Y-8959819D02*
X19785714Y-8959819D01*
X20785714Y-8388390D02*
X20690476Y-8340771D01*
X20690476Y-8340771D02*
X20642857Y-8293152D01*
X20642857Y-8293152D02*
X20595238Y-8197914D01*
X20595238Y-8197914D02*
X20595238Y-8150295D01*
X20595238Y-8150295D02*
X20642857Y-8055057D01*
X20642857Y-8055057D02*
X20690476Y-8007438D01*
X20690476Y-8007438D02*
X20785714Y-7959819D01*
X20785714Y-7959819D02*
X20976190Y-7959819D01*
X20976190Y-7959819D02*
X21071428Y-8007438D01*
X21071428Y-8007438D02*
X21119047Y-8055057D01*
X21119047Y-8055057D02*
X21166666Y-8150295D01*
X21166666Y-8150295D02*
X21166666Y-8197914D01*
X21166666Y-8197914D02*
X21119047Y-8293152D01*
X21119047Y-8293152D02*
X21071428Y-8340771D01*
X21071428Y-8340771D02*
X20976190Y-8388390D01*
X20976190Y-8388390D02*
X20785714Y-8388390D01*
X20785714Y-8388390D02*
X20690476Y-8436009D01*
X20690476Y-8436009D02*
X20642857Y-8483628D01*
X20642857Y-8483628D02*
X20595238Y-8578866D01*
X20595238Y-8578866D02*
X20595238Y-8769342D01*
X20595238Y-8769342D02*
X20642857Y-8864580D01*
X20642857Y-8864580D02*
X20690476Y-8912200D01*
X20690476Y-8912200D02*
X20785714Y-8959819D01*
X20785714Y-8959819D02*
X20976190Y-8959819D01*
X20976190Y-8959819D02*
X21071428Y-8912200D01*
X21071428Y-8912200D02*
X21119047Y-8864580D01*
X21119047Y-8864580D02*
X21166666Y-8769342D01*
X21166666Y-8769342D02*
X21166666Y-8578866D01*
X21166666Y-8578866D02*
X21119047Y-8483628D01*
X21119047Y-8483628D02*
X21071428Y-8436009D01*
X21071428Y-8436009D02*
X20976190Y-8388390D01*
X214285Y-9304819D02*
X214285Y-8304819D01*
X214285Y-8304819D02*
X547618Y-9019104D01*
X547618Y-9019104D02*
X880951Y-8304819D01*
X880951Y-8304819D02*
X880951Y-9304819D01*
X1499999Y-9304819D02*
X1404761Y-9257200D01*
X1404761Y-9257200D02*
X1357142Y-9209580D01*
X1357142Y-9209580D02*
X1309523Y-9114342D01*
X1309523Y-9114342D02*
X1309523Y-8828628D01*
X1309523Y-8828628D02*
X1357142Y-8733390D01*
X1357142Y-8733390D02*
X1404761Y-8685771D01*
X1404761Y-8685771D02*
X1499999Y-8638152D01*
X1499999Y-8638152D02*
X1642856Y-8638152D01*
X1642856Y-8638152D02*
X1738094Y-8685771D01*
X1738094Y-8685771D02*
X1785713Y-8733390D01*
X1785713Y-8733390D02*
X1833332Y-8828628D01*
X1833332Y-8828628D02*
X1833332Y-9114342D01*
X1833332Y-9114342D02*
X1785713Y-9209580D01*
X1785713Y-9209580D02*
X1738094Y-9257200D01*
X1738094Y-9257200D02*
X1642856Y-9304819D01*
X1642856Y-9304819D02*
X1499999Y-9304819D01*
X2690475Y-8638152D02*
X2690475Y-9304819D01*
X2261904Y-8638152D02*
X2261904Y-9161961D01*
X2261904Y-9161961D02*
X2309523Y-9257200D01*
X2309523Y-9257200D02*
X2404761Y-9304819D01*
X2404761Y-9304819D02*
X2547618Y-9304819D01*
X2547618Y-9304819D02*
X2642856Y-9257200D01*
X2642856Y-9257200D02*
X2690475Y-9209580D01*
X3166666Y-8638152D02*
X3166666Y-9304819D01*
X3166666Y-8733390D02*
X3214285Y-8685771D01*
X3214285Y-8685771D02*
X3309523Y-8638152D01*
X3309523Y-8638152D02*
X3452380Y-8638152D01*
X3452380Y-8638152D02*
X3547618Y-8685771D01*
X3547618Y-8685771D02*
X3595237Y-8781009D01*
X3595237Y-8781009D02*
X3595237Y-9304819D01*
X3928571Y-8638152D02*
X4309523Y-8638152D01*
X4071428Y-8304819D02*
X4071428Y-9161961D01*
X4071428Y-9161961D02*
X4119047Y-9257200D01*
X4119047Y-9257200D02*
X4214285Y-9304819D01*
X4214285Y-9304819D02*
X4309523Y-9304819D01*
X4642857Y-9304819D02*
X4642857Y-8638152D01*
X4642857Y-8304819D02*
X4595238Y-8352438D01*
X4595238Y-8352438D02*
X4642857Y-8400057D01*
X4642857Y-8400057D02*
X4690476Y-8352438D01*
X4690476Y-8352438D02*
X4642857Y-8304819D01*
X4642857Y-8304819D02*
X4642857Y-8400057D01*
X5119047Y-8638152D02*
X5119047Y-9304819D01*
X5119047Y-8733390D02*
X5166666Y-8685771D01*
X5166666Y-8685771D02*
X5261904Y-8638152D01*
X5261904Y-8638152D02*
X5404761Y-8638152D01*
X5404761Y-8638152D02*
X5499999Y-8685771D01*
X5499999Y-8685771D02*
X5547618Y-8781009D01*
X5547618Y-8781009D02*
X5547618Y-9304819D01*
X6452380Y-8638152D02*
X6452380Y-9447676D01*
X6452380Y-9447676D02*
X6404761Y-9542914D01*
X6404761Y-9542914D02*
X6357142Y-9590533D01*
X6357142Y-9590533D02*
X6261904Y-9638152D01*
X6261904Y-9638152D02*
X6119047Y-9638152D01*
X6119047Y-9638152D02*
X6023809Y-9590533D01*
X6452380Y-9257200D02*
X6357142Y-9304819D01*
X6357142Y-9304819D02*
X6166666Y-9304819D01*
X6166666Y-9304819D02*
X6071428Y-9257200D01*
X6071428Y-9257200D02*
X6023809Y-9209580D01*
X6023809Y-9209580D02*
X5976190Y-9114342D01*
X5976190Y-9114342D02*
X5976190Y-8828628D01*
X5976190Y-8828628D02*
X6023809Y-8733390D01*
X6023809Y-8733390D02*
X6071428Y-8685771D01*
X6071428Y-8685771D02*
X6166666Y-8638152D01*
X6166666Y-8638152D02*
X6357142Y-8638152D01*
X6357142Y-8638152D02*
X6452380Y-8685771D01*
X6928571Y-9304819D02*
X6928571Y-8304819D01*
X6928571Y-8781009D02*
X7499999Y-8781009D01*
X7499999Y-9304819D02*
X7499999Y-8304819D01*
X8119047Y-9304819D02*
X8023809Y-9257200D01*
X8023809Y-9257200D02*
X7976190Y-9209580D01*
X7976190Y-9209580D02*
X7928571Y-9114342D01*
X7928571Y-9114342D02*
X7928571Y-8828628D01*
X7928571Y-8828628D02*
X7976190Y-8733390D01*
X7976190Y-8733390D02*
X8023809Y-8685771D01*
X8023809Y-8685771D02*
X8119047Y-8638152D01*
X8119047Y-8638152D02*
X8261904Y-8638152D01*
X8261904Y-8638152D02*
X8357142Y-8685771D01*
X8357142Y-8685771D02*
X8404761Y-8733390D01*
X8404761Y-8733390D02*
X8452380Y-8828628D01*
X8452380Y-8828628D02*
X8452380Y-9114342D01*
X8452380Y-9114342D02*
X8404761Y-9209580D01*
X8404761Y-9209580D02*
X8357142Y-9257200D01*
X8357142Y-9257200D02*
X8261904Y-9304819D01*
X8261904Y-9304819D02*
X8119047Y-9304819D01*
X9023809Y-9304819D02*
X8928571Y-9257200D01*
X8928571Y-9257200D02*
X8880952Y-9161961D01*
X8880952Y-9161961D02*
X8880952Y-8304819D01*
X9785714Y-9257200D02*
X9690476Y-9304819D01*
X9690476Y-9304819D02*
X9500000Y-9304819D01*
X9500000Y-9304819D02*
X9404762Y-9257200D01*
X9404762Y-9257200D02*
X9357143Y-9161961D01*
X9357143Y-9161961D02*
X9357143Y-8781009D01*
X9357143Y-8781009D02*
X9404762Y-8685771D01*
X9404762Y-8685771D02*
X9500000Y-8638152D01*
X9500000Y-8638152D02*
X9690476Y-8638152D01*
X9690476Y-8638152D02*
X9785714Y-8685771D01*
X9785714Y-8685771D02*
X9833333Y-8781009D01*
X9833333Y-8781009D02*
X9833333Y-8876247D01*
X9833333Y-8876247D02*
X9357143Y-8971485D01*
X-4071904Y-3374819D02*
X-4071904Y-2374819D01*
X-4071904Y-2851009D02*
X-3500476Y-2851009D01*
X-3500476Y-3374819D02*
X-3500476Y-2374819D01*
X-2595714Y-2708152D02*
X-2595714Y-3374819D01*
X-2833809Y-2327200D02*
X-3071904Y-3041485D01*
X-3071904Y-3041485D02*
X-2452857Y-3041485D01*
X130214285Y-9304819D02*
X130214285Y-8304819D01*
X130214285Y-8304819D02*
X130547618Y-9019104D01*
X130547618Y-9019104D02*
X130880951Y-8304819D01*
X130880951Y-8304819D02*
X130880951Y-9304819D01*
X131499999Y-9304819D02*
X131404761Y-9257200D01*
X131404761Y-9257200D02*
X131357142Y-9209580D01*
X131357142Y-9209580D02*
X131309523Y-9114342D01*
X131309523Y-9114342D02*
X131309523Y-8828628D01*
X131309523Y-8828628D02*
X131357142Y-8733390D01*
X131357142Y-8733390D02*
X131404761Y-8685771D01*
X131404761Y-8685771D02*
X131499999Y-8638152D01*
X131499999Y-8638152D02*
X131642856Y-8638152D01*
X131642856Y-8638152D02*
X131738094Y-8685771D01*
X131738094Y-8685771D02*
X131785713Y-8733390D01*
X131785713Y-8733390D02*
X131833332Y-8828628D01*
X131833332Y-8828628D02*
X131833332Y-9114342D01*
X131833332Y-9114342D02*
X131785713Y-9209580D01*
X131785713Y-9209580D02*
X131738094Y-9257200D01*
X131738094Y-9257200D02*
X131642856Y-9304819D01*
X131642856Y-9304819D02*
X131499999Y-9304819D01*
X132690475Y-8638152D02*
X132690475Y-9304819D01*
X132261904Y-8638152D02*
X132261904Y-9161961D01*
X132261904Y-9161961D02*
X132309523Y-9257200D01*
X132309523Y-9257200D02*
X132404761Y-9304819D01*
X132404761Y-9304819D02*
X132547618Y-9304819D01*
X132547618Y-9304819D02*
X132642856Y-9257200D01*
X132642856Y-9257200D02*
X132690475Y-9209580D01*
X133166666Y-8638152D02*
X133166666Y-9304819D01*
X133166666Y-8733390D02*
X133214285Y-8685771D01*
X133214285Y-8685771D02*
X133309523Y-8638152D01*
X133309523Y-8638152D02*
X133452380Y-8638152D01*
X133452380Y-8638152D02*
X133547618Y-8685771D01*
X133547618Y-8685771D02*
X133595237Y-8781009D01*
X133595237Y-8781009D02*
X133595237Y-9304819D01*
X133928571Y-8638152D02*
X134309523Y-8638152D01*
X134071428Y-8304819D02*
X134071428Y-9161961D01*
X134071428Y-9161961D02*
X134119047Y-9257200D01*
X134119047Y-9257200D02*
X134214285Y-9304819D01*
X134214285Y-9304819D02*
X134309523Y-9304819D01*
X134642857Y-9304819D02*
X134642857Y-8638152D01*
X134642857Y-8304819D02*
X134595238Y-8352438D01*
X134595238Y-8352438D02*
X134642857Y-8400057D01*
X134642857Y-8400057D02*
X134690476Y-8352438D01*
X134690476Y-8352438D02*
X134642857Y-8304819D01*
X134642857Y-8304819D02*
X134642857Y-8400057D01*
X135119047Y-8638152D02*
X135119047Y-9304819D01*
X135119047Y-8733390D02*
X135166666Y-8685771D01*
X135166666Y-8685771D02*
X135261904Y-8638152D01*
X135261904Y-8638152D02*
X135404761Y-8638152D01*
X135404761Y-8638152D02*
X135499999Y-8685771D01*
X135499999Y-8685771D02*
X135547618Y-8781009D01*
X135547618Y-8781009D02*
X135547618Y-9304819D01*
X136452380Y-8638152D02*
X136452380Y-9447676D01*
X136452380Y-9447676D02*
X136404761Y-9542914D01*
X136404761Y-9542914D02*
X136357142Y-9590533D01*
X136357142Y-9590533D02*
X136261904Y-9638152D01*
X136261904Y-9638152D02*
X136119047Y-9638152D01*
X136119047Y-9638152D02*
X136023809Y-9590533D01*
X136452380Y-9257200D02*
X136357142Y-9304819D01*
X136357142Y-9304819D02*
X136166666Y-9304819D01*
X136166666Y-9304819D02*
X136071428Y-9257200D01*
X136071428Y-9257200D02*
X136023809Y-9209580D01*
X136023809Y-9209580D02*
X135976190Y-9114342D01*
X135976190Y-9114342D02*
X135976190Y-8828628D01*
X135976190Y-8828628D02*
X136023809Y-8733390D01*
X136023809Y-8733390D02*
X136071428Y-8685771D01*
X136071428Y-8685771D02*
X136166666Y-8638152D01*
X136166666Y-8638152D02*
X136357142Y-8638152D01*
X136357142Y-8638152D02*
X136452380Y-8685771D01*
X136928571Y-9304819D02*
X136928571Y-8304819D01*
X136928571Y-8781009D02*
X137499999Y-8781009D01*
X137499999Y-9304819D02*
X137499999Y-8304819D01*
X138119047Y-9304819D02*
X138023809Y-9257200D01*
X138023809Y-9257200D02*
X137976190Y-9209580D01*
X137976190Y-9209580D02*
X137928571Y-9114342D01*
X137928571Y-9114342D02*
X137928571Y-8828628D01*
X137928571Y-8828628D02*
X137976190Y-8733390D01*
X137976190Y-8733390D02*
X138023809Y-8685771D01*
X138023809Y-8685771D02*
X138119047Y-8638152D01*
X138119047Y-8638152D02*
X138261904Y-8638152D01*
X138261904Y-8638152D02*
X138357142Y-8685771D01*
X138357142Y-8685771D02*
X138404761Y-8733390D01*
X138404761Y-8733390D02*
X138452380Y-8828628D01*
X138452380Y-8828628D02*
X138452380Y-9114342D01*
X138452380Y-9114342D02*
X138404761Y-9209580D01*
X138404761Y-9209580D02*
X138357142Y-9257200D01*
X138357142Y-9257200D02*
X138261904Y-9304819D01*
X138261904Y-9304819D02*
X138119047Y-9304819D01*
X139023809Y-9304819D02*
X138928571Y-9257200D01*
X138928571Y-9257200D02*
X138880952Y-9161961D01*
X138880952Y-9161961D02*
X138880952Y-8304819D01*
X139785714Y-9257200D02*
X139690476Y-9304819D01*
X139690476Y-9304819D02*
X139500000Y-9304819D01*
X139500000Y-9304819D02*
X139404762Y-9257200D01*
X139404762Y-9257200D02*
X139357143Y-9161961D01*
X139357143Y-9161961D02*
X139357143Y-8781009D01*
X139357143Y-8781009D02*
X139404762Y-8685771D01*
X139404762Y-8685771D02*
X139500000Y-8638152D01*
X139500000Y-8638152D02*
X139690476Y-8638152D01*
X139690476Y-8638152D02*
X139785714Y-8685771D01*
X139785714Y-8685771D02*
X139833333Y-8781009D01*
X139833333Y-8781009D02*
X139833333Y-8876247D01*
X139833333Y-8876247D02*
X139357143Y-8971485D01*
X134538095Y-5454819D02*
X134538095Y-4454819D01*
X134538095Y-4931009D02*
X135109523Y-4931009D01*
X135109523Y-5454819D02*
X135109523Y-4454819D01*
X135538095Y-4550057D02*
X135585714Y-4502438D01*
X135585714Y-4502438D02*
X135680952Y-4454819D01*
X135680952Y-4454819D02*
X135919047Y-4454819D01*
X135919047Y-4454819D02*
X136014285Y-4502438D01*
X136014285Y-4502438D02*
X136061904Y-4550057D01*
X136061904Y-4550057D02*
X136109523Y-4645295D01*
X136109523Y-4645295D02*
X136109523Y-4740533D01*
X136109523Y-4740533D02*
X136061904Y-4883390D01*
X136061904Y-4883390D02*
X135490476Y-5454819D01*
X135490476Y-5454819D02*
X136109523Y-5454819D01*
X144975515Y-45907289D02*
X145118372Y-45954908D01*
X145118372Y-45954908D02*
X145165991Y-46002527D01*
X145165991Y-46002527D02*
X145213610Y-46097765D01*
X145213610Y-46097765D02*
X145213610Y-46240622D01*
X145213610Y-46240622D02*
X145165991Y-46335860D01*
X145165991Y-46335860D02*
X145118372Y-46383480D01*
X145118372Y-46383480D02*
X145023134Y-46431099D01*
X145023134Y-46431099D02*
X144642182Y-46431099D01*
X144642182Y-46431099D02*
X144642182Y-45431099D01*
X144642182Y-45431099D02*
X144975515Y-45431099D01*
X144975515Y-45431099D02*
X145070753Y-45478718D01*
X145070753Y-45478718D02*
X145118372Y-45526337D01*
X145118372Y-45526337D02*
X145165991Y-45621575D01*
X145165991Y-45621575D02*
X145165991Y-45716813D01*
X145165991Y-45716813D02*
X145118372Y-45812051D01*
X145118372Y-45812051D02*
X145070753Y-45859670D01*
X145070753Y-45859670D02*
X144975515Y-45907289D01*
X144975515Y-45907289D02*
X144642182Y-45907289D01*
X146070753Y-46431099D02*
X146070753Y-45907289D01*
X146070753Y-45907289D02*
X146023134Y-45812051D01*
X146023134Y-45812051D02*
X145927896Y-45764432D01*
X145927896Y-45764432D02*
X145737420Y-45764432D01*
X145737420Y-45764432D02*
X145642182Y-45812051D01*
X146070753Y-46383480D02*
X145975515Y-46431099D01*
X145975515Y-46431099D02*
X145737420Y-46431099D01*
X145737420Y-46431099D02*
X145642182Y-46383480D01*
X145642182Y-46383480D02*
X145594563Y-46288241D01*
X145594563Y-46288241D02*
X145594563Y-46193003D01*
X145594563Y-46193003D02*
X145642182Y-46097765D01*
X145642182Y-46097765D02*
X145737420Y-46050146D01*
X145737420Y-46050146D02*
X145975515Y-46050146D01*
X145975515Y-46050146D02*
X146070753Y-46002527D01*
X146546944Y-46431099D02*
X146546944Y-45764432D01*
X146546944Y-45954908D02*
X146594563Y-45859670D01*
X146594563Y-45859670D02*
X146642182Y-45812051D01*
X146642182Y-45812051D02*
X146737420Y-45764432D01*
X146737420Y-45764432D02*
X146832658Y-45764432D01*
X147165992Y-46431099D02*
X147165992Y-45764432D01*
X147165992Y-45954908D02*
X147213611Y-45859670D01*
X147213611Y-45859670D02*
X147261230Y-45812051D01*
X147261230Y-45812051D02*
X147356468Y-45764432D01*
X147356468Y-45764432D02*
X147451706Y-45764432D01*
X148165992Y-46383480D02*
X148070754Y-46431099D01*
X148070754Y-46431099D02*
X147880278Y-46431099D01*
X147880278Y-46431099D02*
X147785040Y-46383480D01*
X147785040Y-46383480D02*
X147737421Y-46288241D01*
X147737421Y-46288241D02*
X147737421Y-45907289D01*
X147737421Y-45907289D02*
X147785040Y-45812051D01*
X147785040Y-45812051D02*
X147880278Y-45764432D01*
X147880278Y-45764432D02*
X148070754Y-45764432D01*
X148070754Y-45764432D02*
X148165992Y-45812051D01*
X148165992Y-45812051D02*
X148213611Y-45907289D01*
X148213611Y-45907289D02*
X148213611Y-46002527D01*
X148213611Y-46002527D02*
X147737421Y-46097765D01*
X148785040Y-46431099D02*
X148689802Y-46383480D01*
X148689802Y-46383480D02*
X148642183Y-46288241D01*
X148642183Y-46288241D02*
X148642183Y-45431099D01*
X148927898Y-46526337D02*
X149689802Y-46526337D01*
X150213612Y-45431099D02*
X150213612Y-46145384D01*
X150213612Y-46145384D02*
X150165993Y-46288241D01*
X150165993Y-46288241D02*
X150070755Y-46383480D01*
X150070755Y-46383480D02*
X149927898Y-46431099D01*
X149927898Y-46431099D02*
X149832660Y-46431099D01*
X151118374Y-46431099D02*
X151118374Y-45907289D01*
X151118374Y-45907289D02*
X151070755Y-45812051D01*
X151070755Y-45812051D02*
X150975517Y-45764432D01*
X150975517Y-45764432D02*
X150785041Y-45764432D01*
X150785041Y-45764432D02*
X150689803Y-45812051D01*
X151118374Y-46383480D02*
X151023136Y-46431099D01*
X151023136Y-46431099D02*
X150785041Y-46431099D01*
X150785041Y-46431099D02*
X150689803Y-46383480D01*
X150689803Y-46383480D02*
X150642184Y-46288241D01*
X150642184Y-46288241D02*
X150642184Y-46193003D01*
X150642184Y-46193003D02*
X150689803Y-46097765D01*
X150689803Y-46097765D02*
X150785041Y-46050146D01*
X150785041Y-46050146D02*
X151023136Y-46050146D01*
X151023136Y-46050146D02*
X151118374Y-46002527D01*
X152023136Y-46383480D02*
X151927898Y-46431099D01*
X151927898Y-46431099D02*
X151737422Y-46431099D01*
X151737422Y-46431099D02*
X151642184Y-46383480D01*
X151642184Y-46383480D02*
X151594565Y-46335860D01*
X151594565Y-46335860D02*
X151546946Y-46240622D01*
X151546946Y-46240622D02*
X151546946Y-45954908D01*
X151546946Y-45954908D02*
X151594565Y-45859670D01*
X151594565Y-45859670D02*
X151642184Y-45812051D01*
X151642184Y-45812051D02*
X151737422Y-45764432D01*
X151737422Y-45764432D02*
X151927898Y-45764432D01*
X151927898Y-45764432D02*
X152023136Y-45812051D01*
X152451708Y-46431099D02*
X152451708Y-45431099D01*
X152546946Y-46050146D02*
X152832660Y-46431099D01*
X152832660Y-45764432D02*
X152451708Y-46145384D01*
X153023137Y-46526337D02*
X153785041Y-46526337D01*
X154023137Y-46431099D02*
X154023137Y-45431099D01*
X154023137Y-45431099D02*
X154356470Y-46145384D01*
X154356470Y-46145384D02*
X154689803Y-45431099D01*
X154689803Y-45431099D02*
X154689803Y-46431099D01*
X155308851Y-46431099D02*
X155213613Y-46383480D01*
X155213613Y-46383480D02*
X155165994Y-46335860D01*
X155165994Y-46335860D02*
X155118375Y-46240622D01*
X155118375Y-46240622D02*
X155118375Y-45954908D01*
X155118375Y-45954908D02*
X155165994Y-45859670D01*
X155165994Y-45859670D02*
X155213613Y-45812051D01*
X155213613Y-45812051D02*
X155308851Y-45764432D01*
X155308851Y-45764432D02*
X155451708Y-45764432D01*
X155451708Y-45764432D02*
X155546946Y-45812051D01*
X155546946Y-45812051D02*
X155594565Y-45859670D01*
X155594565Y-45859670D02*
X155642184Y-45954908D01*
X155642184Y-45954908D02*
X155642184Y-46240622D01*
X155642184Y-46240622D02*
X155594565Y-46335860D01*
X155594565Y-46335860D02*
X155546946Y-46383480D01*
X155546946Y-46383480D02*
X155451708Y-46431099D01*
X155451708Y-46431099D02*
X155308851Y-46431099D01*
X156499327Y-45764432D02*
X156499327Y-46431099D01*
X156070756Y-45764432D02*
X156070756Y-46288241D01*
X156070756Y-46288241D02*
X156118375Y-46383480D01*
X156118375Y-46383480D02*
X156213613Y-46431099D01*
X156213613Y-46431099D02*
X156356470Y-46431099D01*
X156356470Y-46431099D02*
X156451708Y-46383480D01*
X156451708Y-46383480D02*
X156499327Y-46335860D01*
X156975518Y-45764432D02*
X156975518Y-46431099D01*
X156975518Y-45859670D02*
X157023137Y-45812051D01*
X157023137Y-45812051D02*
X157118375Y-45764432D01*
X157118375Y-45764432D02*
X157261232Y-45764432D01*
X157261232Y-45764432D02*
X157356470Y-45812051D01*
X157356470Y-45812051D02*
X157404089Y-45907289D01*
X157404089Y-45907289D02*
X157404089Y-46431099D01*
X157737423Y-45764432D02*
X158118375Y-45764432D01*
X157880280Y-45431099D02*
X157880280Y-46288241D01*
X157880280Y-46288241D02*
X157927899Y-46383480D01*
X157927899Y-46383480D02*
X158023137Y-46431099D01*
X158023137Y-46431099D02*
X158118375Y-46431099D01*
X158451709Y-46431099D02*
X158451709Y-45764432D01*
X158451709Y-45431099D02*
X158404090Y-45478718D01*
X158404090Y-45478718D02*
X158451709Y-45526337D01*
X158451709Y-45526337D02*
X158499328Y-45478718D01*
X158499328Y-45478718D02*
X158451709Y-45431099D01*
X158451709Y-45431099D02*
X158451709Y-45526337D01*
X158927899Y-45764432D02*
X158927899Y-46431099D01*
X158927899Y-45859670D02*
X158975518Y-45812051D01*
X158975518Y-45812051D02*
X159070756Y-45764432D01*
X159070756Y-45764432D02*
X159213613Y-45764432D01*
X159213613Y-45764432D02*
X159308851Y-45812051D01*
X159308851Y-45812051D02*
X159356470Y-45907289D01*
X159356470Y-45907289D02*
X159356470Y-46431099D01*
X160261232Y-45764432D02*
X160261232Y-46573956D01*
X160261232Y-46573956D02*
X160213613Y-46669194D01*
X160213613Y-46669194D02*
X160165994Y-46716813D01*
X160165994Y-46716813D02*
X160070756Y-46764432D01*
X160070756Y-46764432D02*
X159927899Y-46764432D01*
X159927899Y-46764432D02*
X159832661Y-46716813D01*
X160261232Y-46383480D02*
X160165994Y-46431099D01*
X160165994Y-46431099D02*
X159975518Y-46431099D01*
X159975518Y-46431099D02*
X159880280Y-46383480D01*
X159880280Y-46383480D02*
X159832661Y-46335860D01*
X159832661Y-46335860D02*
X159785042Y-46240622D01*
X159785042Y-46240622D02*
X159785042Y-45954908D01*
X159785042Y-45954908D02*
X159832661Y-45859670D01*
X159832661Y-45859670D02*
X159880280Y-45812051D01*
X159880280Y-45812051D02*
X159975518Y-45764432D01*
X159975518Y-45764432D02*
X160165994Y-45764432D01*
X160165994Y-45764432D02*
X160261232Y-45812051D01*
X160737423Y-46431099D02*
X160737423Y-45431099D01*
X160737423Y-45431099D02*
X161118375Y-45431099D01*
X161118375Y-45431099D02*
X161213613Y-45478718D01*
X161213613Y-45478718D02*
X161261232Y-45526337D01*
X161261232Y-45526337D02*
X161308851Y-45621575D01*
X161308851Y-45621575D02*
X161308851Y-45764432D01*
X161308851Y-45764432D02*
X161261232Y-45859670D01*
X161261232Y-45859670D02*
X161213613Y-45907289D01*
X161213613Y-45907289D02*
X161118375Y-45954908D01*
X161118375Y-45954908D02*
X160737423Y-45954908D01*
X161737423Y-46431099D02*
X161737423Y-45764432D01*
X161737423Y-45431099D02*
X161689804Y-45478718D01*
X161689804Y-45478718D02*
X161737423Y-45526337D01*
X161737423Y-45526337D02*
X161785042Y-45478718D01*
X161785042Y-45478718D02*
X161737423Y-45431099D01*
X161737423Y-45431099D02*
X161737423Y-45526337D01*
X162213613Y-45764432D02*
X162213613Y-46431099D01*
X162213613Y-45859670D02*
X162261232Y-45812051D01*
X162261232Y-45812051D02*
X162356470Y-45764432D01*
X162356470Y-45764432D02*
X162499327Y-45764432D01*
X162499327Y-45764432D02*
X162594565Y-45812051D01*
X162594565Y-45812051D02*
X162642184Y-45907289D01*
X162642184Y-45907289D02*
X162642184Y-46431099D01*
X150108849Y-42881099D02*
X150108849Y-43595384D01*
X150108849Y-43595384D02*
X150061230Y-43738241D01*
X150061230Y-43738241D02*
X149965992Y-43833480D01*
X149965992Y-43833480D02*
X149823135Y-43881099D01*
X149823135Y-43881099D02*
X149727897Y-43881099D01*
X151108849Y-43881099D02*
X150537421Y-43881099D01*
X150823135Y-43881099D02*
X150823135Y-42881099D01*
X150823135Y-42881099D02*
X150727897Y-43023956D01*
X150727897Y-43023956D02*
X150632659Y-43119194D01*
X150632659Y-43119194D02*
X150537421Y-43166813D01*
X16952381Y-46281200D02*
X17095238Y-46328819D01*
X17095238Y-46328819D02*
X17333333Y-46328819D01*
X17333333Y-46328819D02*
X17428571Y-46281200D01*
X17428571Y-46281200D02*
X17476190Y-46233580D01*
X17476190Y-46233580D02*
X17523809Y-46138342D01*
X17523809Y-46138342D02*
X17523809Y-46043104D01*
X17523809Y-46043104D02*
X17476190Y-45947866D01*
X17476190Y-45947866D02*
X17428571Y-45900247D01*
X17428571Y-45900247D02*
X17333333Y-45852628D01*
X17333333Y-45852628D02*
X17142857Y-45805009D01*
X17142857Y-45805009D02*
X17047619Y-45757390D01*
X17047619Y-45757390D02*
X17000000Y-45709771D01*
X17000000Y-45709771D02*
X16952381Y-45614533D01*
X16952381Y-45614533D02*
X16952381Y-45519295D01*
X16952381Y-45519295D02*
X17000000Y-45424057D01*
X17000000Y-45424057D02*
X17047619Y-45376438D01*
X17047619Y-45376438D02*
X17142857Y-45328819D01*
X17142857Y-45328819D02*
X17380952Y-45328819D01*
X17380952Y-45328819D02*
X17523809Y-45376438D01*
X17857143Y-45328819D02*
X18095238Y-46328819D01*
X18095238Y-46328819D02*
X18285714Y-45614533D01*
X18285714Y-45614533D02*
X18476190Y-46328819D01*
X18476190Y-46328819D02*
X18714286Y-45328819D01*
X18857143Y-46424057D02*
X19619047Y-46424057D01*
X19857143Y-46328819D02*
X19857143Y-45328819D01*
X19857143Y-45328819D02*
X20238095Y-45328819D01*
X20238095Y-45328819D02*
X20333333Y-45376438D01*
X20333333Y-45376438D02*
X20380952Y-45424057D01*
X20380952Y-45424057D02*
X20428571Y-45519295D01*
X20428571Y-45519295D02*
X20428571Y-45662152D01*
X20428571Y-45662152D02*
X20380952Y-45757390D01*
X20380952Y-45757390D02*
X20333333Y-45805009D01*
X20333333Y-45805009D02*
X20238095Y-45852628D01*
X20238095Y-45852628D02*
X19857143Y-45852628D01*
X21285714Y-45662152D02*
X21285714Y-46328819D01*
X20857143Y-45662152D02*
X20857143Y-46185961D01*
X20857143Y-46185961D02*
X20904762Y-46281200D01*
X20904762Y-46281200D02*
X21000000Y-46328819D01*
X21000000Y-46328819D02*
X21142857Y-46328819D01*
X21142857Y-46328819D02*
X21238095Y-46281200D01*
X21238095Y-46281200D02*
X21285714Y-46233580D01*
X21714286Y-46281200D02*
X21809524Y-46328819D01*
X21809524Y-46328819D02*
X22000000Y-46328819D01*
X22000000Y-46328819D02*
X22095238Y-46281200D01*
X22095238Y-46281200D02*
X22142857Y-46185961D01*
X22142857Y-46185961D02*
X22142857Y-46138342D01*
X22142857Y-46138342D02*
X22095238Y-46043104D01*
X22095238Y-46043104D02*
X22000000Y-45995485D01*
X22000000Y-45995485D02*
X21857143Y-45995485D01*
X21857143Y-45995485D02*
X21761905Y-45947866D01*
X21761905Y-45947866D02*
X21714286Y-45852628D01*
X21714286Y-45852628D02*
X21714286Y-45805009D01*
X21714286Y-45805009D02*
X21761905Y-45709771D01*
X21761905Y-45709771D02*
X21857143Y-45662152D01*
X21857143Y-45662152D02*
X22000000Y-45662152D01*
X22000000Y-45662152D02*
X22095238Y-45709771D01*
X22571429Y-46328819D02*
X22571429Y-45328819D01*
X23000000Y-46328819D02*
X23000000Y-45805009D01*
X23000000Y-45805009D02*
X22952381Y-45709771D01*
X22952381Y-45709771D02*
X22857143Y-45662152D01*
X22857143Y-45662152D02*
X22714286Y-45662152D01*
X22714286Y-45662152D02*
X22619048Y-45709771D01*
X22619048Y-45709771D02*
X22571429Y-45757390D01*
X18666667Y-30533200D02*
X18809524Y-30580819D01*
X18809524Y-30580819D02*
X19047619Y-30580819D01*
X19047619Y-30580819D02*
X19142857Y-30533200D01*
X19142857Y-30533200D02*
X19190476Y-30485580D01*
X19190476Y-30485580D02*
X19238095Y-30390342D01*
X19238095Y-30390342D02*
X19238095Y-30295104D01*
X19238095Y-30295104D02*
X19190476Y-30199866D01*
X19190476Y-30199866D02*
X19142857Y-30152247D01*
X19142857Y-30152247D02*
X19047619Y-30104628D01*
X19047619Y-30104628D02*
X18857143Y-30057009D01*
X18857143Y-30057009D02*
X18761905Y-30009390D01*
X18761905Y-30009390D02*
X18714286Y-29961771D01*
X18714286Y-29961771D02*
X18666667Y-29866533D01*
X18666667Y-29866533D02*
X18666667Y-29771295D01*
X18666667Y-29771295D02*
X18714286Y-29676057D01*
X18714286Y-29676057D02*
X18761905Y-29628438D01*
X18761905Y-29628438D02*
X18857143Y-29580819D01*
X18857143Y-29580819D02*
X19095238Y-29580819D01*
X19095238Y-29580819D02*
X19238095Y-29628438D01*
X19571429Y-29580819D02*
X19809524Y-30580819D01*
X19809524Y-30580819D02*
X20000000Y-29866533D01*
X20000000Y-29866533D02*
X20190476Y-30580819D01*
X20190476Y-30580819D02*
X20428572Y-29580819D01*
X21333333Y-30580819D02*
X20761905Y-30580819D01*
X21047619Y-30580819D02*
X21047619Y-29580819D01*
X21047619Y-29580819D02*
X20952381Y-29723676D01*
X20952381Y-29723676D02*
X20857143Y-29818914D01*
X20857143Y-29818914D02*
X20761905Y-29866533D01*
X107251904Y-18224819D02*
X107251904Y-17224819D01*
X107251904Y-17224819D02*
X107489999Y-17224819D01*
X107489999Y-17224819D02*
X107632856Y-17272438D01*
X107632856Y-17272438D02*
X107728094Y-17367676D01*
X107728094Y-17367676D02*
X107775713Y-17462914D01*
X107775713Y-17462914D02*
X107823332Y-17653390D01*
X107823332Y-17653390D02*
X107823332Y-17796247D01*
X107823332Y-17796247D02*
X107775713Y-17986723D01*
X107775713Y-17986723D02*
X107728094Y-18081961D01*
X107728094Y-18081961D02*
X107632856Y-18177200D01*
X107632856Y-18177200D02*
X107489999Y-18224819D01*
X107489999Y-18224819D02*
X107251904Y-18224819D01*
X108013809Y-18320057D02*
X108775713Y-18320057D01*
X108918571Y-17224819D02*
X109585237Y-17224819D01*
X109585237Y-17224819D02*
X108918571Y-18224819D01*
X108918571Y-18224819D02*
X109585237Y-18224819D01*
X110347142Y-18177200D02*
X110251904Y-18224819D01*
X110251904Y-18224819D02*
X110061428Y-18224819D01*
X110061428Y-18224819D02*
X109966190Y-18177200D01*
X109966190Y-18177200D02*
X109918571Y-18081961D01*
X109918571Y-18081961D02*
X109918571Y-17701009D01*
X109918571Y-17701009D02*
X109966190Y-17605771D01*
X109966190Y-17605771D02*
X110061428Y-17558152D01*
X110061428Y-17558152D02*
X110251904Y-17558152D01*
X110251904Y-17558152D02*
X110347142Y-17605771D01*
X110347142Y-17605771D02*
X110394761Y-17701009D01*
X110394761Y-17701009D02*
X110394761Y-17796247D01*
X110394761Y-17796247D02*
X109918571Y-17891485D01*
X110823333Y-17558152D02*
X110823333Y-18224819D01*
X110823333Y-17653390D02*
X110870952Y-17605771D01*
X110870952Y-17605771D02*
X110966190Y-17558152D01*
X110966190Y-17558152D02*
X111109047Y-17558152D01*
X111109047Y-17558152D02*
X111204285Y-17605771D01*
X111204285Y-17605771D02*
X111251904Y-17701009D01*
X111251904Y-17701009D02*
X111251904Y-18224819D01*
X112109047Y-18177200D02*
X112013809Y-18224819D01*
X112013809Y-18224819D02*
X111823333Y-18224819D01*
X111823333Y-18224819D02*
X111728095Y-18177200D01*
X111728095Y-18177200D02*
X111680476Y-18081961D01*
X111680476Y-18081961D02*
X111680476Y-17701009D01*
X111680476Y-17701009D02*
X111728095Y-17605771D01*
X111728095Y-17605771D02*
X111823333Y-17558152D01*
X111823333Y-17558152D02*
X112013809Y-17558152D01*
X112013809Y-17558152D02*
X112109047Y-17605771D01*
X112109047Y-17605771D02*
X112156666Y-17701009D01*
X112156666Y-17701009D02*
X112156666Y-17796247D01*
X112156666Y-17796247D02*
X111680476Y-17891485D01*
X112585238Y-18224819D02*
X112585238Y-17558152D01*
X112585238Y-17748628D02*
X112632857Y-17653390D01*
X112632857Y-17653390D02*
X112680476Y-17605771D01*
X112680476Y-17605771D02*
X112775714Y-17558152D01*
X112775714Y-17558152D02*
X112870952Y-17558152D01*
X109641905Y-15754819D02*
X109641905Y-14754819D01*
X109641905Y-14754819D02*
X109880000Y-14754819D01*
X109880000Y-14754819D02*
X110022857Y-14802438D01*
X110022857Y-14802438D02*
X110118095Y-14897676D01*
X110118095Y-14897676D02*
X110165714Y-14992914D01*
X110165714Y-14992914D02*
X110213333Y-15183390D01*
X110213333Y-15183390D02*
X110213333Y-15326247D01*
X110213333Y-15326247D02*
X110165714Y-15516723D01*
X110165714Y-15516723D02*
X110118095Y-15611961D01*
X110118095Y-15611961D02*
X110022857Y-15707200D01*
X110022857Y-15707200D02*
X109880000Y-15754819D01*
X109880000Y-15754819D02*
X109641905Y-15754819D01*
X111165714Y-15754819D02*
X110594286Y-15754819D01*
X110880000Y-15754819D02*
X110880000Y-14754819D01*
X110880000Y-14754819D02*
X110784762Y-14897676D01*
X110784762Y-14897676D02*
X110689524Y-14992914D01*
X110689524Y-14992914D02*
X110594286Y-15040533D01*
X105918095Y-13654819D02*
X105918095Y-12654819D01*
X106489523Y-13654819D02*
X106060952Y-13083390D01*
X106489523Y-12654819D02*
X105918095Y-13226247D01*
X112291904Y-30519104D02*
X112768094Y-30519104D01*
X112196666Y-30804819D02*
X112529999Y-29804819D01*
X112529999Y-29804819D02*
X112863332Y-30804819D01*
X113196666Y-30804819D02*
X113196666Y-30138152D01*
X113196666Y-30328628D02*
X113244285Y-30233390D01*
X113244285Y-30233390D02*
X113291904Y-30185771D01*
X113291904Y-30185771D02*
X113387142Y-30138152D01*
X113387142Y-30138152D02*
X113482380Y-30138152D01*
X114244285Y-30804819D02*
X114244285Y-29804819D01*
X114244285Y-30757200D02*
X114149047Y-30804819D01*
X114149047Y-30804819D02*
X113958571Y-30804819D01*
X113958571Y-30804819D02*
X113863333Y-30757200D01*
X113863333Y-30757200D02*
X113815714Y-30709580D01*
X113815714Y-30709580D02*
X113768095Y-30614342D01*
X113768095Y-30614342D02*
X113768095Y-30328628D01*
X113768095Y-30328628D02*
X113815714Y-30233390D01*
X113815714Y-30233390D02*
X113863333Y-30185771D01*
X113863333Y-30185771D02*
X113958571Y-30138152D01*
X113958571Y-30138152D02*
X114149047Y-30138152D01*
X114149047Y-30138152D02*
X114244285Y-30185771D01*
X115149047Y-30138152D02*
X115149047Y-30804819D01*
X114720476Y-30138152D02*
X114720476Y-30661961D01*
X114720476Y-30661961D02*
X114768095Y-30757200D01*
X114768095Y-30757200D02*
X114863333Y-30804819D01*
X114863333Y-30804819D02*
X115006190Y-30804819D01*
X115006190Y-30804819D02*
X115101428Y-30757200D01*
X115101428Y-30757200D02*
X115149047Y-30709580D01*
X115625238Y-30804819D02*
X115625238Y-30138152D01*
X115625238Y-29804819D02*
X115577619Y-29852438D01*
X115577619Y-29852438D02*
X115625238Y-29900057D01*
X115625238Y-29900057D02*
X115672857Y-29852438D01*
X115672857Y-29852438D02*
X115625238Y-29804819D01*
X115625238Y-29804819D02*
X115625238Y-29900057D01*
X116101428Y-30138152D02*
X116101428Y-30804819D01*
X116101428Y-30233390D02*
X116149047Y-30185771D01*
X116149047Y-30185771D02*
X116244285Y-30138152D01*
X116244285Y-30138152D02*
X116387142Y-30138152D01*
X116387142Y-30138152D02*
X116482380Y-30185771D01*
X116482380Y-30185771D02*
X116529999Y-30281009D01*
X116529999Y-30281009D02*
X116529999Y-30804819D01*
X117149047Y-30804819D02*
X117053809Y-30757200D01*
X117053809Y-30757200D02*
X117006190Y-30709580D01*
X117006190Y-30709580D02*
X116958571Y-30614342D01*
X116958571Y-30614342D02*
X116958571Y-30328628D01*
X116958571Y-30328628D02*
X117006190Y-30233390D01*
X117006190Y-30233390D02*
X117053809Y-30185771D01*
X117053809Y-30185771D02*
X117149047Y-30138152D01*
X117149047Y-30138152D02*
X117291904Y-30138152D01*
X117291904Y-30138152D02*
X117387142Y-30185771D01*
X117387142Y-30185771D02*
X117434761Y-30233390D01*
X117434761Y-30233390D02*
X117482380Y-30328628D01*
X117482380Y-30328628D02*
X117482380Y-30614342D01*
X117482380Y-30614342D02*
X117434761Y-30709580D01*
X117434761Y-30709580D02*
X117387142Y-30757200D01*
X117387142Y-30757200D02*
X117291904Y-30804819D01*
X117291904Y-30804819D02*
X117149047Y-30804819D01*
X117672857Y-30900057D02*
X118434761Y-30900057D01*
X118672857Y-30804819D02*
X118672857Y-29804819D01*
X118672857Y-29804819D02*
X119244285Y-30804819D01*
X119244285Y-30804819D02*
X119244285Y-29804819D01*
X120149047Y-30804819D02*
X120149047Y-30281009D01*
X120149047Y-30281009D02*
X120101428Y-30185771D01*
X120101428Y-30185771D02*
X120006190Y-30138152D01*
X120006190Y-30138152D02*
X119815714Y-30138152D01*
X119815714Y-30138152D02*
X119720476Y-30185771D01*
X120149047Y-30757200D02*
X120053809Y-30804819D01*
X120053809Y-30804819D02*
X119815714Y-30804819D01*
X119815714Y-30804819D02*
X119720476Y-30757200D01*
X119720476Y-30757200D02*
X119672857Y-30661961D01*
X119672857Y-30661961D02*
X119672857Y-30566723D01*
X119672857Y-30566723D02*
X119720476Y-30471485D01*
X119720476Y-30471485D02*
X119815714Y-30423866D01*
X119815714Y-30423866D02*
X120053809Y-30423866D01*
X120053809Y-30423866D02*
X120149047Y-30376247D01*
X120625238Y-30138152D02*
X120625238Y-30804819D01*
X120625238Y-30233390D02*
X120672857Y-30185771D01*
X120672857Y-30185771D02*
X120768095Y-30138152D01*
X120768095Y-30138152D02*
X120910952Y-30138152D01*
X120910952Y-30138152D02*
X121006190Y-30185771D01*
X121006190Y-30185771D02*
X121053809Y-30281009D01*
X121053809Y-30281009D02*
X121053809Y-30804819D01*
X121672857Y-30804819D02*
X121577619Y-30757200D01*
X121577619Y-30757200D02*
X121530000Y-30709580D01*
X121530000Y-30709580D02*
X121482381Y-30614342D01*
X121482381Y-30614342D02*
X121482381Y-30328628D01*
X121482381Y-30328628D02*
X121530000Y-30233390D01*
X121530000Y-30233390D02*
X121577619Y-30185771D01*
X121577619Y-30185771D02*
X121672857Y-30138152D01*
X121672857Y-30138152D02*
X121815714Y-30138152D01*
X121815714Y-30138152D02*
X121910952Y-30185771D01*
X121910952Y-30185771D02*
X121958571Y-30233390D01*
X121958571Y-30233390D02*
X122006190Y-30328628D01*
X122006190Y-30328628D02*
X122006190Y-30614342D01*
X122006190Y-30614342D02*
X121958571Y-30709580D01*
X121958571Y-30709580D02*
X121910952Y-30757200D01*
X121910952Y-30757200D02*
X121815714Y-30804819D01*
X121815714Y-30804819D02*
X121672857Y-30804819D01*
X122196667Y-30900057D02*
X122958571Y-30900057D01*
X123101429Y-30138152D02*
X123339524Y-30804819D01*
X123339524Y-30804819D02*
X123577619Y-30138152D01*
X123863334Y-29804819D02*
X124482381Y-29804819D01*
X124482381Y-29804819D02*
X124149048Y-30185771D01*
X124149048Y-30185771D02*
X124291905Y-30185771D01*
X124291905Y-30185771D02*
X124387143Y-30233390D01*
X124387143Y-30233390D02*
X124434762Y-30281009D01*
X124434762Y-30281009D02*
X124482381Y-30376247D01*
X124482381Y-30376247D02*
X124482381Y-30614342D01*
X124482381Y-30614342D02*
X124434762Y-30709580D01*
X124434762Y-30709580D02*
X124387143Y-30757200D01*
X124387143Y-30757200D02*
X124291905Y-30804819D01*
X124291905Y-30804819D02*
X124006191Y-30804819D01*
X124006191Y-30804819D02*
X123910953Y-30757200D01*
X123910953Y-30757200D02*
X123863334Y-30709580D01*
X124910953Y-30709580D02*
X124958572Y-30757200D01*
X124958572Y-30757200D02*
X124910953Y-30804819D01*
X124910953Y-30804819D02*
X124863334Y-30757200D01*
X124863334Y-30757200D02*
X124910953Y-30709580D01*
X124910953Y-30709580D02*
X124910953Y-30804819D01*
X125291905Y-30804819D02*
X125815714Y-30138152D01*
X125291905Y-30138152D02*
X125815714Y-30804819D01*
X118315714Y-33059104D02*
X118791904Y-33059104D01*
X118220476Y-33344819D02*
X118553809Y-32344819D01*
X118553809Y-32344819D02*
X118887142Y-33344819D01*
X119172857Y-32440057D02*
X119220476Y-32392438D01*
X119220476Y-32392438D02*
X119315714Y-32344819D01*
X119315714Y-32344819D02*
X119553809Y-32344819D01*
X119553809Y-32344819D02*
X119649047Y-32392438D01*
X119649047Y-32392438D02*
X119696666Y-32440057D01*
X119696666Y-32440057D02*
X119744285Y-32535295D01*
X119744285Y-32535295D02*
X119744285Y-32630533D01*
X119744285Y-32630533D02*
X119696666Y-32773390D01*
X119696666Y-32773390D02*
X119125238Y-33344819D01*
X119125238Y-33344819D02*
X119744285Y-33344819D01*
X107889580Y-23738095D02*
X107937200Y-23785714D01*
X107937200Y-23785714D02*
X107984819Y-23928571D01*
X107984819Y-23928571D02*
X107984819Y-24023809D01*
X107984819Y-24023809D02*
X107937200Y-24166666D01*
X107937200Y-24166666D02*
X107841961Y-24261904D01*
X107841961Y-24261904D02*
X107746723Y-24309523D01*
X107746723Y-24309523D02*
X107556247Y-24357142D01*
X107556247Y-24357142D02*
X107413390Y-24357142D01*
X107413390Y-24357142D02*
X107222914Y-24309523D01*
X107222914Y-24309523D02*
X107127676Y-24261904D01*
X107127676Y-24261904D02*
X107032438Y-24166666D01*
X107032438Y-24166666D02*
X106984819Y-24023809D01*
X106984819Y-24023809D02*
X106984819Y-23928571D01*
X106984819Y-23928571D02*
X107032438Y-23785714D01*
X107032438Y-23785714D02*
X107080057Y-23738095D01*
X107984819Y-23166666D02*
X107937200Y-23261904D01*
X107937200Y-23261904D02*
X107889580Y-23309523D01*
X107889580Y-23309523D02*
X107794342Y-23357142D01*
X107794342Y-23357142D02*
X107508628Y-23357142D01*
X107508628Y-23357142D02*
X107413390Y-23309523D01*
X107413390Y-23309523D02*
X107365771Y-23261904D01*
X107365771Y-23261904D02*
X107318152Y-23166666D01*
X107318152Y-23166666D02*
X107318152Y-23023809D01*
X107318152Y-23023809D02*
X107365771Y-22928571D01*
X107365771Y-22928571D02*
X107413390Y-22880952D01*
X107413390Y-22880952D02*
X107508628Y-22833333D01*
X107508628Y-22833333D02*
X107794342Y-22833333D01*
X107794342Y-22833333D02*
X107889580Y-22880952D01*
X107889580Y-22880952D02*
X107937200Y-22928571D01*
X107937200Y-22928571D02*
X107984819Y-23023809D01*
X107984819Y-23023809D02*
X107984819Y-23166666D01*
X107318152Y-22404761D02*
X107984819Y-22404761D01*
X107413390Y-22404761D02*
X107365771Y-22357142D01*
X107365771Y-22357142D02*
X107318152Y-22261904D01*
X107318152Y-22261904D02*
X107318152Y-22119047D01*
X107318152Y-22119047D02*
X107365771Y-22023809D01*
X107365771Y-22023809D02*
X107461009Y-21976190D01*
X107461009Y-21976190D02*
X107984819Y-21976190D01*
X107318152Y-21499999D02*
X107984819Y-21499999D01*
X107413390Y-21499999D02*
X107365771Y-21452380D01*
X107365771Y-21452380D02*
X107318152Y-21357142D01*
X107318152Y-21357142D02*
X107318152Y-21214285D01*
X107318152Y-21214285D02*
X107365771Y-21119047D01*
X107365771Y-21119047D02*
X107461009Y-21071428D01*
X107461009Y-21071428D02*
X107984819Y-21071428D01*
X108080057Y-20833333D02*
X108080057Y-20071428D01*
X106984819Y-19642856D02*
X106984819Y-19547618D01*
X106984819Y-19547618D02*
X107032438Y-19452380D01*
X107032438Y-19452380D02*
X107080057Y-19404761D01*
X107080057Y-19404761D02*
X107175295Y-19357142D01*
X107175295Y-19357142D02*
X107365771Y-19309523D01*
X107365771Y-19309523D02*
X107603866Y-19309523D01*
X107603866Y-19309523D02*
X107794342Y-19357142D01*
X107794342Y-19357142D02*
X107889580Y-19404761D01*
X107889580Y-19404761D02*
X107937200Y-19452380D01*
X107937200Y-19452380D02*
X107984819Y-19547618D01*
X107984819Y-19547618D02*
X107984819Y-19642856D01*
X107984819Y-19642856D02*
X107937200Y-19738094D01*
X107937200Y-19738094D02*
X107889580Y-19785713D01*
X107889580Y-19785713D02*
X107794342Y-19833332D01*
X107794342Y-19833332D02*
X107603866Y-19880951D01*
X107603866Y-19880951D02*
X107365771Y-19880951D01*
X107365771Y-19880951D02*
X107175295Y-19833332D01*
X107175295Y-19833332D02*
X107080057Y-19785713D01*
X107080057Y-19785713D02*
X107032438Y-19738094D01*
X107032438Y-19738094D02*
X106984819Y-19642856D01*
X107984819Y-18357142D02*
X107984819Y-18928570D01*
X107984819Y-18642856D02*
X106984819Y-18642856D01*
X106984819Y-18642856D02*
X107127676Y-18738094D01*
X107127676Y-18738094D02*
X107222914Y-18833332D01*
X107222914Y-18833332D02*
X107270533Y-18928570D01*
X107984819Y-18023808D02*
X107318152Y-17499999D01*
X107318152Y-18023808D02*
X107984819Y-17499999D01*
X106984819Y-16928570D02*
X106984819Y-16833332D01*
X106984819Y-16833332D02*
X107032438Y-16738094D01*
X107032438Y-16738094D02*
X107080057Y-16690475D01*
X107080057Y-16690475D02*
X107175295Y-16642856D01*
X107175295Y-16642856D02*
X107365771Y-16595237D01*
X107365771Y-16595237D02*
X107603866Y-16595237D01*
X107603866Y-16595237D02*
X107794342Y-16642856D01*
X107794342Y-16642856D02*
X107889580Y-16690475D01*
X107889580Y-16690475D02*
X107937200Y-16738094D01*
X107937200Y-16738094D02*
X107984819Y-16833332D01*
X107984819Y-16833332D02*
X107984819Y-16928570D01*
X107984819Y-16928570D02*
X107937200Y-17023808D01*
X107937200Y-17023808D02*
X107889580Y-17071427D01*
X107889580Y-17071427D02*
X107794342Y-17119046D01*
X107794342Y-17119046D02*
X107603866Y-17166665D01*
X107603866Y-17166665D02*
X107365771Y-17166665D01*
X107365771Y-17166665D02*
X107175295Y-17119046D01*
X107175295Y-17119046D02*
X107080057Y-17071427D01*
X107080057Y-17071427D02*
X107032438Y-17023808D01*
X107032438Y-17023808D02*
X106984819Y-16928570D01*
X106984819Y-16261903D02*
X106984819Y-15595237D01*
X106984819Y-15595237D02*
X107984819Y-16023808D01*
X117586666Y-19454819D02*
X117586666Y-20169104D01*
X117586666Y-20169104D02*
X117539047Y-20311961D01*
X117539047Y-20311961D02*
X117443809Y-20407200D01*
X117443809Y-20407200D02*
X117300952Y-20454819D01*
X117300952Y-20454819D02*
X117205714Y-20454819D01*
X118491428Y-19788152D02*
X118491428Y-20454819D01*
X118253333Y-19407200D02*
X118015238Y-20121485D01*
X118015238Y-20121485D02*
X118634285Y-20121485D01*
X21407200Y-26571428D02*
X21454819Y-26428571D01*
X21454819Y-26428571D02*
X21454819Y-26190476D01*
X21454819Y-26190476D02*
X21407200Y-26095238D01*
X21407200Y-26095238D02*
X21359580Y-26047619D01*
X21359580Y-26047619D02*
X21264342Y-26000000D01*
X21264342Y-26000000D02*
X21169104Y-26000000D01*
X21169104Y-26000000D02*
X21073866Y-26047619D01*
X21073866Y-26047619D02*
X21026247Y-26095238D01*
X21026247Y-26095238D02*
X20978628Y-26190476D01*
X20978628Y-26190476D02*
X20931009Y-26380952D01*
X20931009Y-26380952D02*
X20883390Y-26476190D01*
X20883390Y-26476190D02*
X20835771Y-26523809D01*
X20835771Y-26523809D02*
X20740533Y-26571428D01*
X20740533Y-26571428D02*
X20645295Y-26571428D01*
X20645295Y-26571428D02*
X20550057Y-26523809D01*
X20550057Y-26523809D02*
X20502438Y-26476190D01*
X20502438Y-26476190D02*
X20454819Y-26380952D01*
X20454819Y-26380952D02*
X20454819Y-26142857D01*
X20454819Y-26142857D02*
X20502438Y-26000000D01*
X20788152Y-25714285D02*
X20788152Y-25333333D01*
X20454819Y-25571428D02*
X21311961Y-25571428D01*
X21311961Y-25571428D02*
X21407200Y-25523809D01*
X21407200Y-25523809D02*
X21454819Y-25428571D01*
X21454819Y-25428571D02*
X21454819Y-25333333D01*
X21407200Y-24619047D02*
X21454819Y-24714285D01*
X21454819Y-24714285D02*
X21454819Y-24904761D01*
X21454819Y-24904761D02*
X21407200Y-24999999D01*
X21407200Y-24999999D02*
X21311961Y-25047618D01*
X21311961Y-25047618D02*
X20931009Y-25047618D01*
X20931009Y-25047618D02*
X20835771Y-24999999D01*
X20835771Y-24999999D02*
X20788152Y-24904761D01*
X20788152Y-24904761D02*
X20788152Y-24714285D01*
X20788152Y-24714285D02*
X20835771Y-24619047D01*
X20835771Y-24619047D02*
X20931009Y-24571428D01*
X20931009Y-24571428D02*
X21026247Y-24571428D01*
X21026247Y-24571428D02*
X21121485Y-25047618D01*
X20788152Y-24142856D02*
X21788152Y-24142856D01*
X20835771Y-24142856D02*
X20788152Y-24047618D01*
X20788152Y-24047618D02*
X20788152Y-23857142D01*
X20788152Y-23857142D02*
X20835771Y-23761904D01*
X20835771Y-23761904D02*
X20883390Y-23714285D01*
X20883390Y-23714285D02*
X20978628Y-23666666D01*
X20978628Y-23666666D02*
X21264342Y-23666666D01*
X21264342Y-23666666D02*
X21359580Y-23714285D01*
X21359580Y-23714285D02*
X21407200Y-23761904D01*
X21407200Y-23761904D02*
X21454819Y-23857142D01*
X21454819Y-23857142D02*
X21454819Y-24047618D01*
X21454819Y-24047618D02*
X21407200Y-24142856D01*
X21407200Y-23285713D02*
X21454819Y-23142856D01*
X21454819Y-23142856D02*
X21454819Y-22904761D01*
X21454819Y-22904761D02*
X21407200Y-22809523D01*
X21407200Y-22809523D02*
X21359580Y-22761904D01*
X21359580Y-22761904D02*
X21264342Y-22714285D01*
X21264342Y-22714285D02*
X21169104Y-22714285D01*
X21169104Y-22714285D02*
X21073866Y-22761904D01*
X21073866Y-22761904D02*
X21026247Y-22809523D01*
X21026247Y-22809523D02*
X20978628Y-22904761D01*
X20978628Y-22904761D02*
X20931009Y-23095237D01*
X20931009Y-23095237D02*
X20883390Y-23190475D01*
X20883390Y-23190475D02*
X20835771Y-23238094D01*
X20835771Y-23238094D02*
X20740533Y-23285713D01*
X20740533Y-23285713D02*
X20645295Y-23285713D01*
X20645295Y-23285713D02*
X20550057Y-23238094D01*
X20550057Y-23238094D02*
X20502438Y-23190475D01*
X20502438Y-23190475D02*
X20454819Y-23095237D01*
X20454819Y-23095237D02*
X20454819Y-22857142D01*
X20454819Y-22857142D02*
X20502438Y-22714285D01*
X20788152Y-22428570D02*
X20788152Y-22047618D01*
X20454819Y-22285713D02*
X21311961Y-22285713D01*
X21311961Y-22285713D02*
X21407200Y-22238094D01*
X21407200Y-22238094D02*
X21454819Y-22142856D01*
X21454819Y-22142856D02*
X21454819Y-22047618D01*
X21454819Y-21714284D02*
X20788152Y-21714284D01*
X20454819Y-21714284D02*
X20502438Y-21761903D01*
X20502438Y-21761903D02*
X20550057Y-21714284D01*
X20550057Y-21714284D02*
X20502438Y-21666665D01*
X20502438Y-21666665D02*
X20454819Y-21714284D01*
X20454819Y-21714284D02*
X20550057Y-21714284D01*
X21407200Y-20809523D02*
X21454819Y-20904761D01*
X21454819Y-20904761D02*
X21454819Y-21095237D01*
X21454819Y-21095237D02*
X21407200Y-21190475D01*
X21407200Y-21190475D02*
X21359580Y-21238094D01*
X21359580Y-21238094D02*
X21264342Y-21285713D01*
X21264342Y-21285713D02*
X20978628Y-21285713D01*
X20978628Y-21285713D02*
X20883390Y-21238094D01*
X20883390Y-21238094D02*
X20835771Y-21190475D01*
X20835771Y-21190475D02*
X20788152Y-21095237D01*
X20788152Y-21095237D02*
X20788152Y-20904761D01*
X20788152Y-20904761D02*
X20835771Y-20809523D01*
X21454819Y-20380951D02*
X20454819Y-20380951D01*
X21073866Y-20285713D02*
X21454819Y-19999999D01*
X20788152Y-19999999D02*
X21169104Y-20380951D01*
X20502438Y-19047618D02*
X20454819Y-19142856D01*
X20454819Y-19142856D02*
X20454819Y-19285713D01*
X20454819Y-19285713D02*
X20502438Y-19428570D01*
X20502438Y-19428570D02*
X20597676Y-19523808D01*
X20597676Y-19523808D02*
X20692914Y-19571427D01*
X20692914Y-19571427D02*
X20883390Y-19619046D01*
X20883390Y-19619046D02*
X21026247Y-19619046D01*
X21026247Y-19619046D02*
X21216723Y-19571427D01*
X21216723Y-19571427D02*
X21311961Y-19523808D01*
X21311961Y-19523808D02*
X21407200Y-19428570D01*
X21407200Y-19428570D02*
X21454819Y-19285713D01*
X21454819Y-19285713D02*
X21454819Y-19190475D01*
X21454819Y-19190475D02*
X21407200Y-19047618D01*
X21407200Y-19047618D02*
X21359580Y-18999999D01*
X21359580Y-18999999D02*
X21026247Y-18999999D01*
X21026247Y-18999999D02*
X21026247Y-19190475D01*
X21407200Y-18190475D02*
X21454819Y-18285713D01*
X21454819Y-18285713D02*
X21454819Y-18476189D01*
X21454819Y-18476189D02*
X21407200Y-18571427D01*
X21407200Y-18571427D02*
X21311961Y-18619046D01*
X21311961Y-18619046D02*
X20931009Y-18619046D01*
X20931009Y-18619046D02*
X20835771Y-18571427D01*
X20835771Y-18571427D02*
X20788152Y-18476189D01*
X20788152Y-18476189D02*
X20788152Y-18285713D01*
X20788152Y-18285713D02*
X20835771Y-18190475D01*
X20835771Y-18190475D02*
X20931009Y-18142856D01*
X20931009Y-18142856D02*
X21026247Y-18142856D01*
X21026247Y-18142856D02*
X21121485Y-18619046D01*
X20788152Y-17714284D02*
X21454819Y-17714284D01*
X20883390Y-17714284D02*
X20835771Y-17666665D01*
X20835771Y-17666665D02*
X20788152Y-17571427D01*
X20788152Y-17571427D02*
X20788152Y-17428570D01*
X20788152Y-17428570D02*
X20835771Y-17333332D01*
X20835771Y-17333332D02*
X20931009Y-17285713D01*
X20931009Y-17285713D02*
X21454819Y-17285713D01*
X21407200Y-16428570D02*
X21454819Y-16523808D01*
X21454819Y-16523808D02*
X21454819Y-16714284D01*
X21454819Y-16714284D02*
X21407200Y-16809522D01*
X21407200Y-16809522D02*
X21311961Y-16857141D01*
X21311961Y-16857141D02*
X20931009Y-16857141D01*
X20931009Y-16857141D02*
X20835771Y-16809522D01*
X20835771Y-16809522D02*
X20788152Y-16714284D01*
X20788152Y-16714284D02*
X20788152Y-16523808D01*
X20788152Y-16523808D02*
X20835771Y-16428570D01*
X20835771Y-16428570D02*
X20931009Y-16380951D01*
X20931009Y-16380951D02*
X21026247Y-16380951D01*
X21026247Y-16380951D02*
X21121485Y-16857141D01*
X21454819Y-15952379D02*
X20788152Y-15952379D01*
X20978628Y-15952379D02*
X20883390Y-15904760D01*
X20883390Y-15904760D02*
X20835771Y-15857141D01*
X20835771Y-15857141D02*
X20788152Y-15761903D01*
X20788152Y-15761903D02*
X20788152Y-15666665D01*
X21454819Y-15333331D02*
X20788152Y-15333331D01*
X20454819Y-15333331D02*
X20502438Y-15380950D01*
X20502438Y-15380950D02*
X20550057Y-15333331D01*
X20550057Y-15333331D02*
X20502438Y-15285712D01*
X20502438Y-15285712D02*
X20454819Y-15333331D01*
X20454819Y-15333331D02*
X20550057Y-15333331D01*
X21407200Y-14428570D02*
X21454819Y-14523808D01*
X21454819Y-14523808D02*
X21454819Y-14714284D01*
X21454819Y-14714284D02*
X21407200Y-14809522D01*
X21407200Y-14809522D02*
X21359580Y-14857141D01*
X21359580Y-14857141D02*
X21264342Y-14904760D01*
X21264342Y-14904760D02*
X20978628Y-14904760D01*
X20978628Y-14904760D02*
X20883390Y-14857141D01*
X20883390Y-14857141D02*
X20835771Y-14809522D01*
X20835771Y-14809522D02*
X20788152Y-14714284D01*
X20788152Y-14714284D02*
X20788152Y-14523808D01*
X20788152Y-14523808D02*
X20835771Y-14428570D01*
X22907200Y-22833333D02*
X22954819Y-22690476D01*
X22954819Y-22690476D02*
X22954819Y-22452381D01*
X22954819Y-22452381D02*
X22907200Y-22357143D01*
X22907200Y-22357143D02*
X22859580Y-22309524D01*
X22859580Y-22309524D02*
X22764342Y-22261905D01*
X22764342Y-22261905D02*
X22669104Y-22261905D01*
X22669104Y-22261905D02*
X22573866Y-22309524D01*
X22573866Y-22309524D02*
X22526247Y-22357143D01*
X22526247Y-22357143D02*
X22478628Y-22452381D01*
X22478628Y-22452381D02*
X22431009Y-22642857D01*
X22431009Y-22642857D02*
X22383390Y-22738095D01*
X22383390Y-22738095D02*
X22335771Y-22785714D01*
X22335771Y-22785714D02*
X22240533Y-22833333D01*
X22240533Y-22833333D02*
X22145295Y-22833333D01*
X22145295Y-22833333D02*
X22050057Y-22785714D01*
X22050057Y-22785714D02*
X22002438Y-22738095D01*
X22002438Y-22738095D02*
X21954819Y-22642857D01*
X21954819Y-22642857D02*
X21954819Y-22404762D01*
X21954819Y-22404762D02*
X22002438Y-22261905D01*
X21811961Y-22547619D02*
X23097676Y-22547619D01*
X23335771Y-21547619D02*
X23335771Y-21595238D01*
X23335771Y-21595238D02*
X23288152Y-21690476D01*
X23288152Y-21690476D02*
X23192914Y-21738095D01*
X23192914Y-21738095D02*
X22716723Y-21738095D01*
X22716723Y-21738095D02*
X22621485Y-21785714D01*
X22621485Y-21785714D02*
X22573866Y-21880952D01*
X22573866Y-21880952D02*
X22526247Y-21785714D01*
X22526247Y-21785714D02*
X22431009Y-21738095D01*
X22431009Y-21738095D02*
X21954819Y-21738095D01*
X21954819Y-21738095D02*
X21859580Y-21690476D01*
X21859580Y-21690476D02*
X21811961Y-21595238D01*
X21811961Y-21595238D02*
X21811961Y-21547619D01*
X22954819Y-20595238D02*
X22478628Y-20928571D01*
X22954819Y-21166666D02*
X21954819Y-21166666D01*
X21954819Y-21166666D02*
X21954819Y-20785714D01*
X21954819Y-20785714D02*
X22002438Y-20690476D01*
X22002438Y-20690476D02*
X22050057Y-20642857D01*
X22050057Y-20642857D02*
X22145295Y-20595238D01*
X22145295Y-20595238D02*
X22288152Y-20595238D01*
X22288152Y-20595238D02*
X22383390Y-20642857D01*
X22383390Y-20642857D02*
X22431009Y-20690476D01*
X22431009Y-20690476D02*
X22478628Y-20785714D01*
X22478628Y-20785714D02*
X22478628Y-21166666D01*
X22431009Y-20166666D02*
X22431009Y-19833333D01*
X22954819Y-19690476D02*
X22954819Y-20166666D01*
X22954819Y-20166666D02*
X21954819Y-20166666D01*
X21954819Y-20166666D02*
X21954819Y-19690476D01*
X22431009Y-18928571D02*
X22431009Y-19261904D01*
X22954819Y-19261904D02*
X21954819Y-19261904D01*
X21954819Y-19261904D02*
X21954819Y-18785714D01*
X23335771Y-18499999D02*
X23335771Y-18452380D01*
X23335771Y-18452380D02*
X23288152Y-18357142D01*
X23288152Y-18357142D02*
X23192914Y-18309523D01*
X23192914Y-18309523D02*
X22716723Y-18309523D01*
X22716723Y-18309523D02*
X22621485Y-18261904D01*
X22621485Y-18261904D02*
X22573866Y-18166666D01*
X22573866Y-18166666D02*
X22526247Y-18261904D01*
X22526247Y-18261904D02*
X22431009Y-18309523D01*
X22431009Y-18309523D02*
X21954819Y-18309523D01*
X21954819Y-18309523D02*
X21859580Y-18357142D01*
X21859580Y-18357142D02*
X21811961Y-18452380D01*
X21811961Y-18452380D02*
X21811961Y-18499999D01*
X214285Y-49304819D02*
X214285Y-48304819D01*
X214285Y-48304819D02*
X547618Y-49019104D01*
X547618Y-49019104D02*
X880951Y-48304819D01*
X880951Y-48304819D02*
X880951Y-49304819D01*
X1499999Y-49304819D02*
X1404761Y-49257200D01*
X1404761Y-49257200D02*
X1357142Y-49209580D01*
X1357142Y-49209580D02*
X1309523Y-49114342D01*
X1309523Y-49114342D02*
X1309523Y-48828628D01*
X1309523Y-48828628D02*
X1357142Y-48733390D01*
X1357142Y-48733390D02*
X1404761Y-48685771D01*
X1404761Y-48685771D02*
X1499999Y-48638152D01*
X1499999Y-48638152D02*
X1642856Y-48638152D01*
X1642856Y-48638152D02*
X1738094Y-48685771D01*
X1738094Y-48685771D02*
X1785713Y-48733390D01*
X1785713Y-48733390D02*
X1833332Y-48828628D01*
X1833332Y-48828628D02*
X1833332Y-49114342D01*
X1833332Y-49114342D02*
X1785713Y-49209580D01*
X1785713Y-49209580D02*
X1738094Y-49257200D01*
X1738094Y-49257200D02*
X1642856Y-49304819D01*
X1642856Y-49304819D02*
X1499999Y-49304819D01*
X2690475Y-48638152D02*
X2690475Y-49304819D01*
X2261904Y-48638152D02*
X2261904Y-49161961D01*
X2261904Y-49161961D02*
X2309523Y-49257200D01*
X2309523Y-49257200D02*
X2404761Y-49304819D01*
X2404761Y-49304819D02*
X2547618Y-49304819D01*
X2547618Y-49304819D02*
X2642856Y-49257200D01*
X2642856Y-49257200D02*
X2690475Y-49209580D01*
X3166666Y-48638152D02*
X3166666Y-49304819D01*
X3166666Y-48733390D02*
X3214285Y-48685771D01*
X3214285Y-48685771D02*
X3309523Y-48638152D01*
X3309523Y-48638152D02*
X3452380Y-48638152D01*
X3452380Y-48638152D02*
X3547618Y-48685771D01*
X3547618Y-48685771D02*
X3595237Y-48781009D01*
X3595237Y-48781009D02*
X3595237Y-49304819D01*
X3928571Y-48638152D02*
X4309523Y-48638152D01*
X4071428Y-48304819D02*
X4071428Y-49161961D01*
X4071428Y-49161961D02*
X4119047Y-49257200D01*
X4119047Y-49257200D02*
X4214285Y-49304819D01*
X4214285Y-49304819D02*
X4309523Y-49304819D01*
X4642857Y-49304819D02*
X4642857Y-48638152D01*
X4642857Y-48304819D02*
X4595238Y-48352438D01*
X4595238Y-48352438D02*
X4642857Y-48400057D01*
X4642857Y-48400057D02*
X4690476Y-48352438D01*
X4690476Y-48352438D02*
X4642857Y-48304819D01*
X4642857Y-48304819D02*
X4642857Y-48400057D01*
X5119047Y-48638152D02*
X5119047Y-49304819D01*
X5119047Y-48733390D02*
X5166666Y-48685771D01*
X5166666Y-48685771D02*
X5261904Y-48638152D01*
X5261904Y-48638152D02*
X5404761Y-48638152D01*
X5404761Y-48638152D02*
X5499999Y-48685771D01*
X5499999Y-48685771D02*
X5547618Y-48781009D01*
X5547618Y-48781009D02*
X5547618Y-49304819D01*
X6452380Y-48638152D02*
X6452380Y-49447676D01*
X6452380Y-49447676D02*
X6404761Y-49542914D01*
X6404761Y-49542914D02*
X6357142Y-49590533D01*
X6357142Y-49590533D02*
X6261904Y-49638152D01*
X6261904Y-49638152D02*
X6119047Y-49638152D01*
X6119047Y-49638152D02*
X6023809Y-49590533D01*
X6452380Y-49257200D02*
X6357142Y-49304819D01*
X6357142Y-49304819D02*
X6166666Y-49304819D01*
X6166666Y-49304819D02*
X6071428Y-49257200D01*
X6071428Y-49257200D02*
X6023809Y-49209580D01*
X6023809Y-49209580D02*
X5976190Y-49114342D01*
X5976190Y-49114342D02*
X5976190Y-48828628D01*
X5976190Y-48828628D02*
X6023809Y-48733390D01*
X6023809Y-48733390D02*
X6071428Y-48685771D01*
X6071428Y-48685771D02*
X6166666Y-48638152D01*
X6166666Y-48638152D02*
X6357142Y-48638152D01*
X6357142Y-48638152D02*
X6452380Y-48685771D01*
X6928571Y-49304819D02*
X6928571Y-48304819D01*
X6928571Y-48781009D02*
X7499999Y-48781009D01*
X7499999Y-49304819D02*
X7499999Y-48304819D01*
X8119047Y-49304819D02*
X8023809Y-49257200D01*
X8023809Y-49257200D02*
X7976190Y-49209580D01*
X7976190Y-49209580D02*
X7928571Y-49114342D01*
X7928571Y-49114342D02*
X7928571Y-48828628D01*
X7928571Y-48828628D02*
X7976190Y-48733390D01*
X7976190Y-48733390D02*
X8023809Y-48685771D01*
X8023809Y-48685771D02*
X8119047Y-48638152D01*
X8119047Y-48638152D02*
X8261904Y-48638152D01*
X8261904Y-48638152D02*
X8357142Y-48685771D01*
X8357142Y-48685771D02*
X8404761Y-48733390D01*
X8404761Y-48733390D02*
X8452380Y-48828628D01*
X8452380Y-48828628D02*
X8452380Y-49114342D01*
X8452380Y-49114342D02*
X8404761Y-49209580D01*
X8404761Y-49209580D02*
X8357142Y-49257200D01*
X8357142Y-49257200D02*
X8261904Y-49304819D01*
X8261904Y-49304819D02*
X8119047Y-49304819D01*
X9023809Y-49304819D02*
X8928571Y-49257200D01*
X8928571Y-49257200D02*
X8880952Y-49161961D01*
X8880952Y-49161961D02*
X8880952Y-48304819D01*
X9785714Y-49257200D02*
X9690476Y-49304819D01*
X9690476Y-49304819D02*
X9500000Y-49304819D01*
X9500000Y-49304819D02*
X9404762Y-49257200D01*
X9404762Y-49257200D02*
X9357143Y-49161961D01*
X9357143Y-49161961D02*
X9357143Y-48781009D01*
X9357143Y-48781009D02*
X9404762Y-48685771D01*
X9404762Y-48685771D02*
X9500000Y-48638152D01*
X9500000Y-48638152D02*
X9690476Y-48638152D01*
X9690476Y-48638152D02*
X9785714Y-48685771D01*
X9785714Y-48685771D02*
X9833333Y-48781009D01*
X9833333Y-48781009D02*
X9833333Y-48876247D01*
X9833333Y-48876247D02*
X9357143Y-48971485D01*
X4538095Y-45454819D02*
X4538095Y-44454819D01*
X4538095Y-44931009D02*
X5109523Y-44931009D01*
X5109523Y-45454819D02*
X5109523Y-44454819D01*
X5490476Y-44454819D02*
X6109523Y-44454819D01*
X6109523Y-44454819D02*
X5776190Y-44835771D01*
X5776190Y-44835771D02*
X5919047Y-44835771D01*
X5919047Y-44835771D02*
X6014285Y-44883390D01*
X6014285Y-44883390D02*
X6061904Y-44931009D01*
X6061904Y-44931009D02*
X6109523Y-45026247D01*
X6109523Y-45026247D02*
X6109523Y-45264342D01*
X6109523Y-45264342D02*
X6061904Y-45359580D01*
X6061904Y-45359580D02*
X6014285Y-45407200D01*
X6014285Y-45407200D02*
X5919047Y-45454819D01*
X5919047Y-45454819D02*
X5633333Y-45454819D01*
X5633333Y-45454819D02*
X5538095Y-45407200D01*
X5538095Y-45407200D02*
X5490476Y-45359580D01*
X124474819Y-15548095D02*
X123474819Y-15548095D01*
X123474819Y-15548095D02*
X123474819Y-15310000D01*
X123474819Y-15310000D02*
X123522438Y-15167143D01*
X123522438Y-15167143D02*
X123617676Y-15071905D01*
X123617676Y-15071905D02*
X123712914Y-15024286D01*
X123712914Y-15024286D02*
X123903390Y-14976667D01*
X123903390Y-14976667D02*
X124046247Y-14976667D01*
X124046247Y-14976667D02*
X124236723Y-15024286D01*
X124236723Y-15024286D02*
X124331961Y-15071905D01*
X124331961Y-15071905D02*
X124427200Y-15167143D01*
X124427200Y-15167143D02*
X124474819Y-15310000D01*
X124474819Y-15310000D02*
X124474819Y-15548095D01*
X124570057Y-14786191D02*
X124570057Y-14024286D01*
X123474819Y-13881428D02*
X123474819Y-13214762D01*
X123474819Y-13214762D02*
X124474819Y-13881428D01*
X124474819Y-13881428D02*
X124474819Y-13214762D01*
X124427200Y-12452857D02*
X124474819Y-12548095D01*
X124474819Y-12548095D02*
X124474819Y-12738571D01*
X124474819Y-12738571D02*
X124427200Y-12833809D01*
X124427200Y-12833809D02*
X124331961Y-12881428D01*
X124331961Y-12881428D02*
X123951009Y-12881428D01*
X123951009Y-12881428D02*
X123855771Y-12833809D01*
X123855771Y-12833809D02*
X123808152Y-12738571D01*
X123808152Y-12738571D02*
X123808152Y-12548095D01*
X123808152Y-12548095D02*
X123855771Y-12452857D01*
X123855771Y-12452857D02*
X123951009Y-12405238D01*
X123951009Y-12405238D02*
X124046247Y-12405238D01*
X124046247Y-12405238D02*
X124141485Y-12881428D01*
X123808152Y-11976666D02*
X124474819Y-11976666D01*
X123903390Y-11976666D02*
X123855771Y-11929047D01*
X123855771Y-11929047D02*
X123808152Y-11833809D01*
X123808152Y-11833809D02*
X123808152Y-11690952D01*
X123808152Y-11690952D02*
X123855771Y-11595714D01*
X123855771Y-11595714D02*
X123951009Y-11548095D01*
X123951009Y-11548095D02*
X124474819Y-11548095D01*
X124427200Y-10690952D02*
X124474819Y-10786190D01*
X124474819Y-10786190D02*
X124474819Y-10976666D01*
X124474819Y-10976666D02*
X124427200Y-11071904D01*
X124427200Y-11071904D02*
X124331961Y-11119523D01*
X124331961Y-11119523D02*
X123951009Y-11119523D01*
X123951009Y-11119523D02*
X123855771Y-11071904D01*
X123855771Y-11071904D02*
X123808152Y-10976666D01*
X123808152Y-10976666D02*
X123808152Y-10786190D01*
X123808152Y-10786190D02*
X123855771Y-10690952D01*
X123855771Y-10690952D02*
X123951009Y-10643333D01*
X123951009Y-10643333D02*
X124046247Y-10643333D01*
X124046247Y-10643333D02*
X124141485Y-11119523D01*
X124474819Y-10214761D02*
X123808152Y-10214761D01*
X123998628Y-10214761D02*
X123903390Y-10167142D01*
X123903390Y-10167142D02*
X123855771Y-10119523D01*
X123855771Y-10119523D02*
X123808152Y-10024285D01*
X123808152Y-10024285D02*
X123808152Y-9929047D01*
X122004819Y-13158094D02*
X121004819Y-13158094D01*
X121004819Y-13158094D02*
X121004819Y-12919999D01*
X121004819Y-12919999D02*
X121052438Y-12777142D01*
X121052438Y-12777142D02*
X121147676Y-12681904D01*
X121147676Y-12681904D02*
X121242914Y-12634285D01*
X121242914Y-12634285D02*
X121433390Y-12586666D01*
X121433390Y-12586666D02*
X121576247Y-12586666D01*
X121576247Y-12586666D02*
X121766723Y-12634285D01*
X121766723Y-12634285D02*
X121861961Y-12681904D01*
X121861961Y-12681904D02*
X121957200Y-12777142D01*
X121957200Y-12777142D02*
X122004819Y-12919999D01*
X122004819Y-12919999D02*
X122004819Y-13158094D01*
X121004819Y-12253332D02*
X121004819Y-11634285D01*
X121004819Y-11634285D02*
X121385771Y-11967618D01*
X121385771Y-11967618D02*
X121385771Y-11824761D01*
X121385771Y-11824761D02*
X121433390Y-11729523D01*
X121433390Y-11729523D02*
X121481009Y-11681904D01*
X121481009Y-11681904D02*
X121576247Y-11634285D01*
X121576247Y-11634285D02*
X121814342Y-11634285D01*
X121814342Y-11634285D02*
X121909580Y-11681904D01*
X121909580Y-11681904D02*
X121957200Y-11729523D01*
X121957200Y-11729523D02*
X122004819Y-11824761D01*
X122004819Y-11824761D02*
X122004819Y-12110475D01*
X122004819Y-12110475D02*
X121957200Y-12205713D01*
X121957200Y-12205713D02*
X121909580Y-12253332D01*
X108666666Y-7204819D02*
X108666666Y-7919104D01*
X108666666Y-7919104D02*
X108619047Y-8061961D01*
X108619047Y-8061961D02*
X108523809Y-8157200D01*
X108523809Y-8157200D02*
X108380952Y-8204819D01*
X108380952Y-8204819D02*
X108285714Y-8204819D01*
X109095238Y-7300057D02*
X109142857Y-7252438D01*
X109142857Y-7252438D02*
X109238095Y-7204819D01*
X109238095Y-7204819D02*
X109476190Y-7204819D01*
X109476190Y-7204819D02*
X109571428Y-7252438D01*
X109571428Y-7252438D02*
X109619047Y-7300057D01*
X109619047Y-7300057D02*
X109666666Y-7395295D01*
X109666666Y-7395295D02*
X109666666Y-7490533D01*
X109666666Y-7490533D02*
X109619047Y-7633390D01*
X109619047Y-7633390D02*
X109047619Y-8204819D01*
X109047619Y-8204819D02*
X109666666Y-8204819D01*
X55052381Y-46281200D02*
X55195238Y-46328819D01*
X55195238Y-46328819D02*
X55433333Y-46328819D01*
X55433333Y-46328819D02*
X55528571Y-46281200D01*
X55528571Y-46281200D02*
X55576190Y-46233580D01*
X55576190Y-46233580D02*
X55623809Y-46138342D01*
X55623809Y-46138342D02*
X55623809Y-46043104D01*
X55623809Y-46043104D02*
X55576190Y-45947866D01*
X55576190Y-45947866D02*
X55528571Y-45900247D01*
X55528571Y-45900247D02*
X55433333Y-45852628D01*
X55433333Y-45852628D02*
X55242857Y-45805009D01*
X55242857Y-45805009D02*
X55147619Y-45757390D01*
X55147619Y-45757390D02*
X55100000Y-45709771D01*
X55100000Y-45709771D02*
X55052381Y-45614533D01*
X55052381Y-45614533D02*
X55052381Y-45519295D01*
X55052381Y-45519295D02*
X55100000Y-45424057D01*
X55100000Y-45424057D02*
X55147619Y-45376438D01*
X55147619Y-45376438D02*
X55242857Y-45328819D01*
X55242857Y-45328819D02*
X55480952Y-45328819D01*
X55480952Y-45328819D02*
X55623809Y-45376438D01*
X55957143Y-45328819D02*
X56195238Y-46328819D01*
X56195238Y-46328819D02*
X56385714Y-45614533D01*
X56385714Y-45614533D02*
X56576190Y-46328819D01*
X56576190Y-46328819D02*
X56814286Y-45328819D01*
X56957143Y-46424057D02*
X57719047Y-46424057D01*
X57957143Y-46328819D02*
X57957143Y-45328819D01*
X57957143Y-45328819D02*
X58338095Y-45328819D01*
X58338095Y-45328819D02*
X58433333Y-45376438D01*
X58433333Y-45376438D02*
X58480952Y-45424057D01*
X58480952Y-45424057D02*
X58528571Y-45519295D01*
X58528571Y-45519295D02*
X58528571Y-45662152D01*
X58528571Y-45662152D02*
X58480952Y-45757390D01*
X58480952Y-45757390D02*
X58433333Y-45805009D01*
X58433333Y-45805009D02*
X58338095Y-45852628D01*
X58338095Y-45852628D02*
X57957143Y-45852628D01*
X59385714Y-45662152D02*
X59385714Y-46328819D01*
X58957143Y-45662152D02*
X58957143Y-46185961D01*
X58957143Y-46185961D02*
X59004762Y-46281200D01*
X59004762Y-46281200D02*
X59100000Y-46328819D01*
X59100000Y-46328819D02*
X59242857Y-46328819D01*
X59242857Y-46328819D02*
X59338095Y-46281200D01*
X59338095Y-46281200D02*
X59385714Y-46233580D01*
X59814286Y-46281200D02*
X59909524Y-46328819D01*
X59909524Y-46328819D02*
X60100000Y-46328819D01*
X60100000Y-46328819D02*
X60195238Y-46281200D01*
X60195238Y-46281200D02*
X60242857Y-46185961D01*
X60242857Y-46185961D02*
X60242857Y-46138342D01*
X60242857Y-46138342D02*
X60195238Y-46043104D01*
X60195238Y-46043104D02*
X60100000Y-45995485D01*
X60100000Y-45995485D02*
X59957143Y-45995485D01*
X59957143Y-45995485D02*
X59861905Y-45947866D01*
X59861905Y-45947866D02*
X59814286Y-45852628D01*
X59814286Y-45852628D02*
X59814286Y-45805009D01*
X59814286Y-45805009D02*
X59861905Y-45709771D01*
X59861905Y-45709771D02*
X59957143Y-45662152D01*
X59957143Y-45662152D02*
X60100000Y-45662152D01*
X60100000Y-45662152D02*
X60195238Y-45709771D01*
X60671429Y-46328819D02*
X60671429Y-45328819D01*
X61100000Y-46328819D02*
X61100000Y-45805009D01*
X61100000Y-45805009D02*
X61052381Y-45709771D01*
X61052381Y-45709771D02*
X60957143Y-45662152D01*
X60957143Y-45662152D02*
X60814286Y-45662152D01*
X60814286Y-45662152D02*
X60719048Y-45709771D01*
X60719048Y-45709771D02*
X60671429Y-45757390D01*
X56766667Y-30533200D02*
X56909524Y-30580819D01*
X56909524Y-30580819D02*
X57147619Y-30580819D01*
X57147619Y-30580819D02*
X57242857Y-30533200D01*
X57242857Y-30533200D02*
X57290476Y-30485580D01*
X57290476Y-30485580D02*
X57338095Y-30390342D01*
X57338095Y-30390342D02*
X57338095Y-30295104D01*
X57338095Y-30295104D02*
X57290476Y-30199866D01*
X57290476Y-30199866D02*
X57242857Y-30152247D01*
X57242857Y-30152247D02*
X57147619Y-30104628D01*
X57147619Y-30104628D02*
X56957143Y-30057009D01*
X56957143Y-30057009D02*
X56861905Y-30009390D01*
X56861905Y-30009390D02*
X56814286Y-29961771D01*
X56814286Y-29961771D02*
X56766667Y-29866533D01*
X56766667Y-29866533D02*
X56766667Y-29771295D01*
X56766667Y-29771295D02*
X56814286Y-29676057D01*
X56814286Y-29676057D02*
X56861905Y-29628438D01*
X56861905Y-29628438D02*
X56957143Y-29580819D01*
X56957143Y-29580819D02*
X57195238Y-29580819D01*
X57195238Y-29580819D02*
X57338095Y-29628438D01*
X57671429Y-29580819D02*
X57909524Y-30580819D01*
X57909524Y-30580819D02*
X58100000Y-29866533D01*
X58100000Y-29866533D02*
X58290476Y-30580819D01*
X58290476Y-30580819D02*
X58528572Y-29580819D01*
X58814286Y-29580819D02*
X59433333Y-29580819D01*
X59433333Y-29580819D02*
X59100000Y-29961771D01*
X59100000Y-29961771D02*
X59242857Y-29961771D01*
X59242857Y-29961771D02*
X59338095Y-30009390D01*
X59338095Y-30009390D02*
X59385714Y-30057009D01*
X59385714Y-30057009D02*
X59433333Y-30152247D01*
X59433333Y-30152247D02*
X59433333Y-30390342D01*
X59433333Y-30390342D02*
X59385714Y-30485580D01*
X59385714Y-30485580D02*
X59338095Y-30533200D01*
X59338095Y-30533200D02*
X59242857Y-30580819D01*
X59242857Y-30580819D02*
X58957143Y-30580819D01*
X58957143Y-30580819D02*
X58861905Y-30533200D01*
X58861905Y-30533200D02*
X58814286Y-30485580D01*
X90261904Y-1984819D02*
X90261904Y-984819D01*
X90261904Y-984819D02*
X90499999Y-984819D01*
X90499999Y-984819D02*
X90642856Y-1032438D01*
X90642856Y-1032438D02*
X90738094Y-1127676D01*
X90738094Y-1127676D02*
X90785713Y-1222914D01*
X90785713Y-1222914D02*
X90833332Y-1413390D01*
X90833332Y-1413390D02*
X90833332Y-1556247D01*
X90833332Y-1556247D02*
X90785713Y-1746723D01*
X90785713Y-1746723D02*
X90738094Y-1841961D01*
X90738094Y-1841961D02*
X90642856Y-1937200D01*
X90642856Y-1937200D02*
X90499999Y-1984819D01*
X90499999Y-1984819D02*
X90261904Y-1984819D01*
X91023809Y-2080057D02*
X91785713Y-2080057D01*
X91928571Y-984819D02*
X92595237Y-984819D01*
X92595237Y-984819D02*
X91928571Y-1984819D01*
X91928571Y-1984819D02*
X92595237Y-1984819D01*
X93357142Y-1937200D02*
X93261904Y-1984819D01*
X93261904Y-1984819D02*
X93071428Y-1984819D01*
X93071428Y-1984819D02*
X92976190Y-1937200D01*
X92976190Y-1937200D02*
X92928571Y-1841961D01*
X92928571Y-1841961D02*
X92928571Y-1461009D01*
X92928571Y-1461009D02*
X92976190Y-1365771D01*
X92976190Y-1365771D02*
X93071428Y-1318152D01*
X93071428Y-1318152D02*
X93261904Y-1318152D01*
X93261904Y-1318152D02*
X93357142Y-1365771D01*
X93357142Y-1365771D02*
X93404761Y-1461009D01*
X93404761Y-1461009D02*
X93404761Y-1556247D01*
X93404761Y-1556247D02*
X92928571Y-1651485D01*
X93833333Y-1318152D02*
X93833333Y-1984819D01*
X93833333Y-1413390D02*
X93880952Y-1365771D01*
X93880952Y-1365771D02*
X93976190Y-1318152D01*
X93976190Y-1318152D02*
X94119047Y-1318152D01*
X94119047Y-1318152D02*
X94214285Y-1365771D01*
X94214285Y-1365771D02*
X94261904Y-1461009D01*
X94261904Y-1461009D02*
X94261904Y-1984819D01*
X95119047Y-1937200D02*
X95023809Y-1984819D01*
X95023809Y-1984819D02*
X94833333Y-1984819D01*
X94833333Y-1984819D02*
X94738095Y-1937200D01*
X94738095Y-1937200D02*
X94690476Y-1841961D01*
X94690476Y-1841961D02*
X94690476Y-1461009D01*
X94690476Y-1461009D02*
X94738095Y-1365771D01*
X94738095Y-1365771D02*
X94833333Y-1318152D01*
X94833333Y-1318152D02*
X95023809Y-1318152D01*
X95023809Y-1318152D02*
X95119047Y-1365771D01*
X95119047Y-1365771D02*
X95166666Y-1461009D01*
X95166666Y-1461009D02*
X95166666Y-1556247D01*
X95166666Y-1556247D02*
X94690476Y-1651485D01*
X95595238Y-1984819D02*
X95595238Y-1318152D01*
X95595238Y-1508628D02*
X95642857Y-1413390D01*
X95642857Y-1413390D02*
X95690476Y-1365771D01*
X95690476Y-1365771D02*
X95785714Y-1318152D01*
X95785714Y-1318152D02*
X95880952Y-1318152D01*
X96548095Y-6554819D02*
X96548095Y-5554819D01*
X97119523Y-6554819D02*
X96690952Y-5983390D01*
X97119523Y-5554819D02*
X96548095Y-6126247D01*
X91871905Y-4454819D02*
X91871905Y-3454819D01*
X91871905Y-3454819D02*
X92110000Y-3454819D01*
X92110000Y-3454819D02*
X92252857Y-3502438D01*
X92252857Y-3502438D02*
X92348095Y-3597676D01*
X92348095Y-3597676D02*
X92395714Y-3692914D01*
X92395714Y-3692914D02*
X92443333Y-3883390D01*
X92443333Y-3883390D02*
X92443333Y-4026247D01*
X92443333Y-4026247D02*
X92395714Y-4216723D01*
X92395714Y-4216723D02*
X92348095Y-4311961D01*
X92348095Y-4311961D02*
X92252857Y-4407200D01*
X92252857Y-4407200D02*
X92110000Y-4454819D01*
X92110000Y-4454819D02*
X91871905Y-4454819D01*
X93348095Y-3454819D02*
X92871905Y-3454819D01*
X92871905Y-3454819D02*
X92824286Y-3931009D01*
X92824286Y-3931009D02*
X92871905Y-3883390D01*
X92871905Y-3883390D02*
X92967143Y-3835771D01*
X92967143Y-3835771D02*
X93205238Y-3835771D01*
X93205238Y-3835771D02*
X93300476Y-3883390D01*
X93300476Y-3883390D02*
X93348095Y-3931009D01*
X93348095Y-3931009D02*
X93395714Y-4026247D01*
X93395714Y-4026247D02*
X93395714Y-4264342D01*
X93395714Y-4264342D02*
X93348095Y-4359580D01*
X93348095Y-4359580D02*
X93300476Y-4407200D01*
X93300476Y-4407200D02*
X93205238Y-4454819D01*
X93205238Y-4454819D02*
X92967143Y-4454819D01*
X92967143Y-4454819D02*
X92871905Y-4407200D01*
X92871905Y-4407200D02*
X92824286Y-4359580D01*
X72444819Y-21251666D02*
X71444819Y-21251666D01*
X71444819Y-21251666D02*
X72444819Y-20680238D01*
X72444819Y-20680238D02*
X71444819Y-20680238D01*
X72397200Y-19823095D02*
X72444819Y-19918333D01*
X72444819Y-19918333D02*
X72444819Y-20108809D01*
X72444819Y-20108809D02*
X72397200Y-20204047D01*
X72397200Y-20204047D02*
X72301961Y-20251666D01*
X72301961Y-20251666D02*
X71921009Y-20251666D01*
X71921009Y-20251666D02*
X71825771Y-20204047D01*
X71825771Y-20204047D02*
X71778152Y-20108809D01*
X71778152Y-20108809D02*
X71778152Y-19918333D01*
X71778152Y-19918333D02*
X71825771Y-19823095D01*
X71825771Y-19823095D02*
X71921009Y-19775476D01*
X71921009Y-19775476D02*
X72016247Y-19775476D01*
X72016247Y-19775476D02*
X72111485Y-20251666D01*
X72444819Y-19204047D02*
X72397200Y-19299285D01*
X72397200Y-19299285D02*
X72349580Y-19346904D01*
X72349580Y-19346904D02*
X72254342Y-19394523D01*
X72254342Y-19394523D02*
X71968628Y-19394523D01*
X71968628Y-19394523D02*
X71873390Y-19346904D01*
X71873390Y-19346904D02*
X71825771Y-19299285D01*
X71825771Y-19299285D02*
X71778152Y-19204047D01*
X71778152Y-19204047D02*
X71778152Y-19061190D01*
X71778152Y-19061190D02*
X71825771Y-18965952D01*
X71825771Y-18965952D02*
X71873390Y-18918333D01*
X71873390Y-18918333D02*
X71968628Y-18870714D01*
X71968628Y-18870714D02*
X72254342Y-18870714D01*
X72254342Y-18870714D02*
X72349580Y-18918333D01*
X72349580Y-18918333D02*
X72397200Y-18965952D01*
X72397200Y-18965952D02*
X72444819Y-19061190D01*
X72444819Y-19061190D02*
X72444819Y-19204047D01*
X72444819Y-18442142D02*
X71444819Y-18442142D01*
X71444819Y-18442142D02*
X71444819Y-18061190D01*
X71444819Y-18061190D02*
X71492438Y-17965952D01*
X71492438Y-17965952D02*
X71540057Y-17918333D01*
X71540057Y-17918333D02*
X71635295Y-17870714D01*
X71635295Y-17870714D02*
X71778152Y-17870714D01*
X71778152Y-17870714D02*
X71873390Y-17918333D01*
X71873390Y-17918333D02*
X71921009Y-17965952D01*
X71921009Y-17965952D02*
X71968628Y-18061190D01*
X71968628Y-18061190D02*
X71968628Y-18442142D01*
X72444819Y-17442142D02*
X71778152Y-17442142D01*
X71444819Y-17442142D02*
X71492438Y-17489761D01*
X71492438Y-17489761D02*
X71540057Y-17442142D01*
X71540057Y-17442142D02*
X71492438Y-17394523D01*
X71492438Y-17394523D02*
X71444819Y-17442142D01*
X71444819Y-17442142D02*
X71540057Y-17442142D01*
X72444819Y-17061190D02*
X71778152Y-16537381D01*
X71778152Y-17061190D02*
X72444819Y-16537381D01*
X72397200Y-15775476D02*
X72444819Y-15870714D01*
X72444819Y-15870714D02*
X72444819Y-16061190D01*
X72444819Y-16061190D02*
X72397200Y-16156428D01*
X72397200Y-16156428D02*
X72301961Y-16204047D01*
X72301961Y-16204047D02*
X71921009Y-16204047D01*
X71921009Y-16204047D02*
X71825771Y-16156428D01*
X71825771Y-16156428D02*
X71778152Y-16061190D01*
X71778152Y-16061190D02*
X71778152Y-15870714D01*
X71778152Y-15870714D02*
X71825771Y-15775476D01*
X71825771Y-15775476D02*
X71921009Y-15727857D01*
X71921009Y-15727857D02*
X72016247Y-15727857D01*
X72016247Y-15727857D02*
X72111485Y-16204047D01*
X72444819Y-15156428D02*
X72397200Y-15251666D01*
X72397200Y-15251666D02*
X72301961Y-15299285D01*
X72301961Y-15299285D02*
X71444819Y-15299285D01*
X72540057Y-15013571D02*
X72540057Y-14251666D01*
X71444819Y-14156427D02*
X71444819Y-13584999D01*
X72444819Y-13870713D02*
X71444819Y-13870713D01*
X72444819Y-13251665D02*
X71444819Y-13251665D01*
X71921009Y-13251665D02*
X71921009Y-12680237D01*
X72444819Y-12680237D02*
X71444819Y-12680237D01*
X71444819Y-12346903D02*
X71444819Y-11775475D01*
X72444819Y-12061189D02*
X71444819Y-12061189D01*
X80364819Y-17704047D02*
X80364819Y-18180237D01*
X80364819Y-18180237D02*
X79364819Y-18180237D01*
X79841009Y-17370713D02*
X79841009Y-17037380D01*
X80364819Y-16894523D02*
X80364819Y-17370713D01*
X80364819Y-17370713D02*
X79364819Y-17370713D01*
X79364819Y-17370713D02*
X79364819Y-16894523D01*
X80364819Y-16465951D02*
X79364819Y-16465951D01*
X79364819Y-16465951D02*
X79364819Y-16227856D01*
X79364819Y-16227856D02*
X79412438Y-16084999D01*
X79412438Y-16084999D02*
X79507676Y-15989761D01*
X79507676Y-15989761D02*
X79602914Y-15942142D01*
X79602914Y-15942142D02*
X79793390Y-15894523D01*
X79793390Y-15894523D02*
X79936247Y-15894523D01*
X79936247Y-15894523D02*
X80126723Y-15942142D01*
X80126723Y-15942142D02*
X80221961Y-15989761D01*
X80221961Y-15989761D02*
X80317200Y-16084999D01*
X80317200Y-16084999D02*
X80364819Y-16227856D01*
X80364819Y-16227856D02*
X80364819Y-16465951D01*
X80364819Y-14942142D02*
X80364819Y-15513570D01*
X80364819Y-15227856D02*
X79364819Y-15227856D01*
X79364819Y-15227856D02*
X79507676Y-15323094D01*
X79507676Y-15323094D02*
X79602914Y-15418332D01*
X79602914Y-15418332D02*
X79650533Y-15513570D01*
X36002381Y-46281200D02*
X36145238Y-46328819D01*
X36145238Y-46328819D02*
X36383333Y-46328819D01*
X36383333Y-46328819D02*
X36478571Y-46281200D01*
X36478571Y-46281200D02*
X36526190Y-46233580D01*
X36526190Y-46233580D02*
X36573809Y-46138342D01*
X36573809Y-46138342D02*
X36573809Y-46043104D01*
X36573809Y-46043104D02*
X36526190Y-45947866D01*
X36526190Y-45947866D02*
X36478571Y-45900247D01*
X36478571Y-45900247D02*
X36383333Y-45852628D01*
X36383333Y-45852628D02*
X36192857Y-45805009D01*
X36192857Y-45805009D02*
X36097619Y-45757390D01*
X36097619Y-45757390D02*
X36050000Y-45709771D01*
X36050000Y-45709771D02*
X36002381Y-45614533D01*
X36002381Y-45614533D02*
X36002381Y-45519295D01*
X36002381Y-45519295D02*
X36050000Y-45424057D01*
X36050000Y-45424057D02*
X36097619Y-45376438D01*
X36097619Y-45376438D02*
X36192857Y-45328819D01*
X36192857Y-45328819D02*
X36430952Y-45328819D01*
X36430952Y-45328819D02*
X36573809Y-45376438D01*
X36907143Y-45328819D02*
X37145238Y-46328819D01*
X37145238Y-46328819D02*
X37335714Y-45614533D01*
X37335714Y-45614533D02*
X37526190Y-46328819D01*
X37526190Y-46328819D02*
X37764286Y-45328819D01*
X37907143Y-46424057D02*
X38669047Y-46424057D01*
X38907143Y-46328819D02*
X38907143Y-45328819D01*
X38907143Y-45328819D02*
X39288095Y-45328819D01*
X39288095Y-45328819D02*
X39383333Y-45376438D01*
X39383333Y-45376438D02*
X39430952Y-45424057D01*
X39430952Y-45424057D02*
X39478571Y-45519295D01*
X39478571Y-45519295D02*
X39478571Y-45662152D01*
X39478571Y-45662152D02*
X39430952Y-45757390D01*
X39430952Y-45757390D02*
X39383333Y-45805009D01*
X39383333Y-45805009D02*
X39288095Y-45852628D01*
X39288095Y-45852628D02*
X38907143Y-45852628D01*
X40335714Y-45662152D02*
X40335714Y-46328819D01*
X39907143Y-45662152D02*
X39907143Y-46185961D01*
X39907143Y-46185961D02*
X39954762Y-46281200D01*
X39954762Y-46281200D02*
X40050000Y-46328819D01*
X40050000Y-46328819D02*
X40192857Y-46328819D01*
X40192857Y-46328819D02*
X40288095Y-46281200D01*
X40288095Y-46281200D02*
X40335714Y-46233580D01*
X40764286Y-46281200D02*
X40859524Y-46328819D01*
X40859524Y-46328819D02*
X41050000Y-46328819D01*
X41050000Y-46328819D02*
X41145238Y-46281200D01*
X41145238Y-46281200D02*
X41192857Y-46185961D01*
X41192857Y-46185961D02*
X41192857Y-46138342D01*
X41192857Y-46138342D02*
X41145238Y-46043104D01*
X41145238Y-46043104D02*
X41050000Y-45995485D01*
X41050000Y-45995485D02*
X40907143Y-45995485D01*
X40907143Y-45995485D02*
X40811905Y-45947866D01*
X40811905Y-45947866D02*
X40764286Y-45852628D01*
X40764286Y-45852628D02*
X40764286Y-45805009D01*
X40764286Y-45805009D02*
X40811905Y-45709771D01*
X40811905Y-45709771D02*
X40907143Y-45662152D01*
X40907143Y-45662152D02*
X41050000Y-45662152D01*
X41050000Y-45662152D02*
X41145238Y-45709771D01*
X41621429Y-46328819D02*
X41621429Y-45328819D01*
X42050000Y-46328819D02*
X42050000Y-45805009D01*
X42050000Y-45805009D02*
X42002381Y-45709771D01*
X42002381Y-45709771D02*
X41907143Y-45662152D01*
X41907143Y-45662152D02*
X41764286Y-45662152D01*
X41764286Y-45662152D02*
X41669048Y-45709771D01*
X41669048Y-45709771D02*
X41621429Y-45757390D01*
X37716667Y-30533200D02*
X37859524Y-30580819D01*
X37859524Y-30580819D02*
X38097619Y-30580819D01*
X38097619Y-30580819D02*
X38192857Y-30533200D01*
X38192857Y-30533200D02*
X38240476Y-30485580D01*
X38240476Y-30485580D02*
X38288095Y-30390342D01*
X38288095Y-30390342D02*
X38288095Y-30295104D01*
X38288095Y-30295104D02*
X38240476Y-30199866D01*
X38240476Y-30199866D02*
X38192857Y-30152247D01*
X38192857Y-30152247D02*
X38097619Y-30104628D01*
X38097619Y-30104628D02*
X37907143Y-30057009D01*
X37907143Y-30057009D02*
X37811905Y-30009390D01*
X37811905Y-30009390D02*
X37764286Y-29961771D01*
X37764286Y-29961771D02*
X37716667Y-29866533D01*
X37716667Y-29866533D02*
X37716667Y-29771295D01*
X37716667Y-29771295D02*
X37764286Y-29676057D01*
X37764286Y-29676057D02*
X37811905Y-29628438D01*
X37811905Y-29628438D02*
X37907143Y-29580819D01*
X37907143Y-29580819D02*
X38145238Y-29580819D01*
X38145238Y-29580819D02*
X38288095Y-29628438D01*
X38621429Y-29580819D02*
X38859524Y-30580819D01*
X38859524Y-30580819D02*
X39050000Y-29866533D01*
X39050000Y-29866533D02*
X39240476Y-30580819D01*
X39240476Y-30580819D02*
X39478572Y-29580819D01*
X39811905Y-29676057D02*
X39859524Y-29628438D01*
X39859524Y-29628438D02*
X39954762Y-29580819D01*
X39954762Y-29580819D02*
X40192857Y-29580819D01*
X40192857Y-29580819D02*
X40288095Y-29628438D01*
X40288095Y-29628438D02*
X40335714Y-29676057D01*
X40335714Y-29676057D02*
X40383333Y-29771295D01*
X40383333Y-29771295D02*
X40383333Y-29866533D01*
X40383333Y-29866533D02*
X40335714Y-30009390D01*
X40335714Y-30009390D02*
X39764286Y-30580819D01*
X39764286Y-30580819D02*
X40383333Y-30580819D01*
X90261904Y-5984819D02*
X90261904Y-4984819D01*
X90261904Y-4984819D02*
X90499999Y-4984819D01*
X90499999Y-4984819D02*
X90642856Y-5032438D01*
X90642856Y-5032438D02*
X90738094Y-5127676D01*
X90738094Y-5127676D02*
X90785713Y-5222914D01*
X90785713Y-5222914D02*
X90833332Y-5413390D01*
X90833332Y-5413390D02*
X90833332Y-5556247D01*
X90833332Y-5556247D02*
X90785713Y-5746723D01*
X90785713Y-5746723D02*
X90738094Y-5841961D01*
X90738094Y-5841961D02*
X90642856Y-5937200D01*
X90642856Y-5937200D02*
X90499999Y-5984819D01*
X90499999Y-5984819D02*
X90261904Y-5984819D01*
X91023809Y-6080057D02*
X91785713Y-6080057D01*
X91928571Y-4984819D02*
X92595237Y-4984819D01*
X92595237Y-4984819D02*
X91928571Y-5984819D01*
X91928571Y-5984819D02*
X92595237Y-5984819D01*
X93357142Y-5937200D02*
X93261904Y-5984819D01*
X93261904Y-5984819D02*
X93071428Y-5984819D01*
X93071428Y-5984819D02*
X92976190Y-5937200D01*
X92976190Y-5937200D02*
X92928571Y-5841961D01*
X92928571Y-5841961D02*
X92928571Y-5461009D01*
X92928571Y-5461009D02*
X92976190Y-5365771D01*
X92976190Y-5365771D02*
X93071428Y-5318152D01*
X93071428Y-5318152D02*
X93261904Y-5318152D01*
X93261904Y-5318152D02*
X93357142Y-5365771D01*
X93357142Y-5365771D02*
X93404761Y-5461009D01*
X93404761Y-5461009D02*
X93404761Y-5556247D01*
X93404761Y-5556247D02*
X92928571Y-5651485D01*
X93833333Y-5318152D02*
X93833333Y-5984819D01*
X93833333Y-5413390D02*
X93880952Y-5365771D01*
X93880952Y-5365771D02*
X93976190Y-5318152D01*
X93976190Y-5318152D02*
X94119047Y-5318152D01*
X94119047Y-5318152D02*
X94214285Y-5365771D01*
X94214285Y-5365771D02*
X94261904Y-5461009D01*
X94261904Y-5461009D02*
X94261904Y-5984819D01*
X95119047Y-5937200D02*
X95023809Y-5984819D01*
X95023809Y-5984819D02*
X94833333Y-5984819D01*
X94833333Y-5984819D02*
X94738095Y-5937200D01*
X94738095Y-5937200D02*
X94690476Y-5841961D01*
X94690476Y-5841961D02*
X94690476Y-5461009D01*
X94690476Y-5461009D02*
X94738095Y-5365771D01*
X94738095Y-5365771D02*
X94833333Y-5318152D01*
X94833333Y-5318152D02*
X95023809Y-5318152D01*
X95023809Y-5318152D02*
X95119047Y-5365771D01*
X95119047Y-5365771D02*
X95166666Y-5461009D01*
X95166666Y-5461009D02*
X95166666Y-5556247D01*
X95166666Y-5556247D02*
X94690476Y-5651485D01*
X95595238Y-5984819D02*
X95595238Y-5318152D01*
X95595238Y-5508628D02*
X95642857Y-5413390D01*
X95642857Y-5413390D02*
X95690476Y-5365771D01*
X95690476Y-5365771D02*
X95785714Y-5318152D01*
X95785714Y-5318152D02*
X95880952Y-5318152D01*
X91871905Y-8454819D02*
X91871905Y-7454819D01*
X91871905Y-7454819D02*
X92110000Y-7454819D01*
X92110000Y-7454819D02*
X92252857Y-7502438D01*
X92252857Y-7502438D02*
X92348095Y-7597676D01*
X92348095Y-7597676D02*
X92395714Y-7692914D01*
X92395714Y-7692914D02*
X92443333Y-7883390D01*
X92443333Y-7883390D02*
X92443333Y-8026247D01*
X92443333Y-8026247D02*
X92395714Y-8216723D01*
X92395714Y-8216723D02*
X92348095Y-8311961D01*
X92348095Y-8311961D02*
X92252857Y-8407200D01*
X92252857Y-8407200D02*
X92110000Y-8454819D01*
X92110000Y-8454819D02*
X91871905Y-8454819D01*
X93300476Y-7788152D02*
X93300476Y-8454819D01*
X93062381Y-7407200D02*
X92824286Y-8121485D01*
X92824286Y-8121485D02*
X93443333Y-8121485D01*
X96548095Y-10554819D02*
X96548095Y-9554819D01*
X97119523Y-10554819D02*
X96690952Y-9983390D01*
X97119523Y-9554819D02*
X96548095Y-10126247D01*
D11*
%TO.C,C1*%
X86602500Y-18476759D02*
X87402500Y-18476759D01*
X87002500Y-18876759D02*
X87002500Y-18076759D01*
X92750000Y-15450000D02*
G75*
G02*
X84750000Y-15450000I-4000000J0D01*
G01*
X84750000Y-15450000D02*
G75*
G02*
X92750000Y-15450000I4000000J0D01*
G01*
%TO.C,F1*%
X120550000Y-800000D02*
X120550000Y-5800000D01*
X120550000Y-5800000D02*
X131050000Y-5800000D01*
X131050000Y-800000D02*
X120550000Y-800000D01*
X131050000Y-5800000D02*
X131050000Y-800000D01*
%TO.C,J5*%
X134270000Y-18730000D02*
X136175000Y-18730000D01*
X134270000Y-21270000D02*
X134270000Y-18730000D01*
X136175000Y-18730000D02*
X136810000Y-19365000D01*
X136810000Y-19365000D02*
X136810000Y-21270000D01*
X136810000Y-21270000D02*
X134270000Y-21270000D01*
%TO.C,C3*%
X6747500Y-14670590D02*
X6747500Y-15470590D01*
X7147500Y-15070590D02*
X6347500Y-15070590D01*
X9000000Y-18097349D02*
G75*
G02*
X1000000Y-18097349I-4000000J0D01*
G01*
X1000000Y-18097349D02*
G75*
G02*
X9000000Y-18097349I4000000J0D01*
G01*
%TO.C,SW4*%
X70800000Y-31650000D02*
X83500000Y-31650000D01*
X70800000Y-44350000D02*
X70800000Y-31650000D01*
X83500000Y-31650000D02*
X83500000Y-44350000D01*
X83500000Y-44350000D02*
X70800000Y-44350000D01*
%TO.C,J8*%
X10500000Y-105000D02*
X30500000Y-105000D01*
X10500000Y-3005000D02*
X30500000Y-3005000D01*
X10500000Y-7905000D02*
X30500000Y-7905000D01*
X10500000Y-9405000D02*
X10500000Y-105000D01*
X10500000Y-9405000D02*
X30500000Y-9405000D01*
X11000000Y-9905000D02*
X10500000Y-9405000D01*
X13955000Y-4167000D02*
X11862000Y-6260000D01*
X14138000Y-4350000D02*
X12045000Y-6443000D01*
X18955000Y-4167000D02*
X16863000Y-6260000D01*
X19138000Y-4350000D02*
X17046000Y-6443000D01*
X23955000Y-4167000D02*
X21863000Y-6260000D01*
X24138000Y-4350000D02*
X22046000Y-6443000D01*
X28955000Y-4167000D02*
X26863000Y-6260000D01*
X29138000Y-4350000D02*
X27046000Y-6443000D01*
X30500000Y-105000D02*
X30500000Y-9905000D01*
X30500000Y-9905000D02*
X11000000Y-9905000D01*
X14500000Y-5305000D02*
G75*
G02*
X11500000Y-5305000I-1500000J0D01*
G01*
X11500000Y-5305000D02*
G75*
G02*
X14500000Y-5305000I1500000J0D01*
G01*
X19500000Y-5305000D02*
G75*
G02*
X16500000Y-5305000I-1500000J0D01*
G01*
X16500000Y-5305000D02*
G75*
G02*
X19500000Y-5305000I1500000J0D01*
G01*
X24500000Y-5305000D02*
G75*
G02*
X21500000Y-5305000I-1500000J0D01*
G01*
X21500000Y-5305000D02*
G75*
G02*
X24500000Y-5305000I1500000J0D01*
G01*
X29500000Y-5305000D02*
G75*
G02*
X26500000Y-5305000I-1500000J0D01*
G01*
X26500000Y-5305000D02*
G75*
G02*
X29500000Y-5305000I1500000J0D01*
G01*
%TO.C,J1*%
X125450000Y-8757500D02*
X125450000Y-17007500D01*
X126250000Y-17757500D02*
X139950000Y-17757500D01*
X126253213Y-17762925D02*
X125450000Y-17007500D01*
X136450000Y-17757500D02*
X136450000Y-8757500D01*
X139950000Y-8757500D02*
X125450000Y-8757500D01*
X139950000Y-17757500D02*
X139950000Y-8757500D01*
%TO.C,SW1*%
X13650000Y-31650000D02*
X26350000Y-31650000D01*
X13650000Y-44350000D02*
X13650000Y-31650000D01*
X26350000Y-31650000D02*
X26350000Y-44350000D01*
X26350000Y-44350000D02*
X13650000Y-44350000D01*
%TO.C,D1*%
X106180000Y-15300000D02*
X107390000Y-15300000D01*
X107390000Y-13950000D02*
X107390000Y-16650000D01*
X107390000Y-16650000D02*
X112590000Y-16650000D01*
X108070000Y-13950000D02*
X108070000Y-16650000D01*
X108170000Y-13950000D02*
X108170000Y-16650000D01*
X108270000Y-13950000D02*
X108270000Y-16650000D01*
X112590000Y-13950000D02*
X107390000Y-13950000D01*
X112590000Y-16650000D02*
X112590000Y-13950000D01*
X113800000Y-15300000D02*
X112590000Y-15300000D01*
%TO.C,A2*%
X96170000Y-22730000D02*
X139350000Y-22730000D01*
X96170000Y-39240000D02*
X96170000Y-22730000D01*
X97440000Y-40510000D02*
X96170000Y-39240000D01*
X131730000Y-27810000D02*
X141890000Y-27810000D01*
X131730000Y-35430000D02*
X131730000Y-27810000D01*
X139350000Y-22730000D02*
X139350000Y-40510000D01*
X139350000Y-40510000D02*
X97440000Y-40510000D01*
X141890000Y-27810000D02*
X141890000Y-35430000D01*
X141890000Y-35430000D02*
X131730000Y-35430000D01*
%TO.C,J4*%
X109030000Y-18730000D02*
X126810000Y-18730000D01*
X109030000Y-21270000D02*
X109030000Y-18730000D01*
X126175000Y-21270000D02*
X109030000Y-21270000D01*
X126810000Y-18730000D02*
X126810000Y-20635000D01*
X126810000Y-20635000D02*
X126175000Y-21270000D01*
%TO.C,D3*%
X120200000Y-10210000D02*
X120200000Y-15410000D01*
X120200000Y-14530000D02*
X122900000Y-14530000D01*
X120200000Y-14630000D02*
X122900000Y-14630000D01*
X120200000Y-14730000D02*
X122900000Y-14730000D01*
X120200000Y-15410000D02*
X122900000Y-15410000D01*
X121550000Y-9000000D02*
X121550000Y-10210000D01*
X121550000Y-16620000D02*
X121550000Y-15410000D01*
X122900000Y-10210000D02*
X120200000Y-10210000D01*
X122900000Y-15410000D02*
X122900000Y-10210000D01*
%TO.C,J2*%
X102645000Y-5105000D02*
X114075000Y-5105000D01*
X102645000Y-10185000D02*
X102645000Y-5105000D01*
X114075000Y-5105000D02*
X115345000Y-6375000D01*
X115345000Y-6375000D02*
X115345000Y-10185000D01*
X115345000Y-10185000D02*
X102645000Y-10185000D01*
%TO.C,SW3*%
X51750000Y-31650000D02*
X64450000Y-31650000D01*
X51750000Y-44350000D02*
X51750000Y-31650000D01*
X64450000Y-31650000D02*
X64450000Y-44350000D01*
X64450000Y-44350000D02*
X51750000Y-44350000D01*
%TO.C,D5*%
X89190000Y-4000000D02*
X90400000Y-4000000D01*
X90400000Y-2650000D02*
X90400000Y-5350000D01*
X90400000Y-5350000D02*
X95600000Y-5350000D01*
X94720000Y-5350000D02*
X94720000Y-2650000D01*
X94820000Y-5350000D02*
X94820000Y-2650000D01*
X94920000Y-5350000D02*
X94920000Y-2650000D01*
X95600000Y-2650000D02*
X90400000Y-2650000D01*
X95600000Y-5350000D02*
X95600000Y-2650000D01*
X96810000Y-4000000D02*
X95600000Y-4000000D01*
%TO.C,LED1*%
X77419694Y-14085000D02*
X74480306Y-14085000D01*
X77419694Y-14085000D02*
G75*
G02*
X74480334Y-14084984I-1469694J-2500000D01*
G01*
X78450000Y-16585000D02*
G75*
G02*
X73450000Y-16585000I-2500000J0D01*
G01*
X73450000Y-16585000D02*
G75*
G02*
X78450000Y-16585000I2500000J0D01*
G01*
%TO.C,SW2*%
X32700000Y-31650000D02*
X45400000Y-31650000D01*
X32700000Y-44350000D02*
X32700000Y-31650000D01*
X45400000Y-31650000D02*
X45400000Y-44350000D01*
X45400000Y-44350000D02*
X32700000Y-44350000D01*
%TO.C,D4*%
X89190000Y-8000000D02*
X90400000Y-8000000D01*
X90400000Y-6650000D02*
X90400000Y-9350000D01*
X90400000Y-9350000D02*
X95600000Y-9350000D01*
X94720000Y-9350000D02*
X94720000Y-6650000D01*
X94820000Y-9350000D02*
X94820000Y-6650000D01*
X94920000Y-9350000D02*
X94920000Y-6650000D01*
X95600000Y-6650000D02*
X90400000Y-6650000D01*
X95600000Y-9350000D02*
X95600000Y-6650000D01*
X96810000Y-8000000D02*
X95600000Y-8000000D01*
%TD*%
M02*
